<svg xmlns="http://www.w3.org/2000/svg" xmlns:xlink="http://www.w3.org/1999/xlink" viewBox="0 0 151.04 293.54"><defs><style>.cls-1{fill:none;}.cls-2{fill:#e56579;}.cls-3{fill:#fff;}.cls-4{fill:#94d1e1;}.cls-5{fill:#e3da76;}.cls-6{fill:#f59292;opacity:0.5;}.cls-7{fill:url(#blümchen-26);}.cls-14,.cls-8{fill:#161a1d;}.cls-9{fill:#f15a2b;}.cls-10,.cls-12{fill:#ae2d24;}.cls-10,.cls-11{opacity:0.2;}.cls-13{stroke:#000;stroke-linecap:round;stroke-linejoin:round;stroke-width:0.5px;}.cls-14{fill-rule:evenodd;}</style><pattern id="blümchen-26" data-name="blümchen-26" width="100.96" height="100.96" patternUnits="userSpaceOnUse" viewBox="0 0 100.96 100.96"><rect class="cls-1" width="100.96" height="100.96"/><path class="cls-2" d="M27.86,46.91l.21-.1-.1-.07A1.63,1.63,0,0,1,27.86,46.91Z"/><path class="cls-2" d="M57.72,30.91l0,0h0A0,0,0,0,1,57.72,30.91Z"/><path class="cls-2" d="M35.31,0h-.05l0,.09S35.3,0,35.31,0Z"/><path class="cls-2" d="M37.26,1.68v0h0Z"/><path class="cls-2" d="M38.27,0h-.7a9.87,9.87,0,0,1-.7.89A6.45,6.45,0,0,0,38.27,0Z"/><path class="cls-2" d="M73.65,5.35h.1c.34-1.68.45-3.59.71-5.36h-2a22.17,22.17,0,0,1,1.12,5.36Z"/><path class="cls-2" d="M72.34,11.19l.21-.11-.1-.06Z"/><path class="cls-2" d="M33,0H32A8.82,8.82,0,0,1,33.7,1.28,2.2,2.2,0,0,0,33,0Z"/><path class="cls-2" d="M28.35,77.27v0h0Z"/><path class="cls-2" d="M1.63,53.4a3.25,3.25,0,0,0-1.63,1v1.41a15.3,15.3,0,0,1,1.64-2.38Z"/><path class="cls-2" d="M0,48.76v.76a8.36,8.36,0,0,1,.85.71A2.63,2.63,0,0,0,0,48.76Z"/><path class="cls-2" d="M101,94.87V101H79.44a7.32,7.32,0,0,0-.26-5.61c-3.37.08-4.27,2.61-4.72,5.61h-2a7.22,7.22,0,0,0-4.76-4.82c-.09.31-.33.46-.79.4a7.35,7.35,0,0,0,0,4.42H43.56a3.75,3.75,0,0,0,.83-2.28c-2.72-1.09-4.38.91-6.12,2.28h-.7c1.21-1.68,2.32-4.19,1.28-6.63-3.65-.26-2.68,4.1-3.54,6.63h-.05c-.69-2.74-1.45-7-4.72-5.84-.7,3.07,1.37,4.55,2.49,5.84H32c-1.76-1-4.15-1.69-5.8-.3,0,.11,0,.2,0,.3H0V94.87a11,11,0,0,0,.43-9A1.4,1.4,0,0,1,0,85.86v-.22a3.27,3.27,0,0,0,.44,0,2.91,2.91,0,0,0,2.92-2.91,2.83,2.83,0,0,0-.17-.92,1.36,1.36,0,0,0,0-.28c1,.69.93,2.38.4,3.56,2.66,1.52,9.26,6.17,11.87,1.58C14,83.07,8.65,83.24,4.39,82.36c4.67-.74,9.26-1.56,9.89-6.34C9.35,73.53,5.79,78.74,2.8,80.77c1.85-3,5.35-7.38,3.17-11.87-5.35.12-4.5,6.44-5.43,11H.37C.28,79,.16,78.1,0,77.27V60.89c2.69-.33,3.49-4.76,2.39-7.24l.24,0a2,2,0,0,0,1.19-.39c-.46,2.94-.22,6.5,3.76,6.85C9.24,57.07,5.06,54.53,5.2,53c1.28,1.64,5,3.27,7.13,1.59C12,51.32,7.85,51.94,5.2,51c3.15-.41,6.16-1,6.34-4.35C8.11,45.3,6.36,48.83,4,49.84c1.4-1.57,3.22-4.6,2-7.52-3.69-.26-2.65,4.21-3.56,6.73-.49-1.94-1-4.65-2.43-5.69v-21a3.2,3.2,0,0,0,.46.9c3,0,3.87-4.69,2.72-7.27l.24,0a2.06,2.06,0,0,0,1.19-.39c-.46,2.93-.22,6.5,3.76,6.85C10,19.35,5.85,16.82,6,15.29c1.27,1.63,4.94,3.27,7.12,1.59C12.83,13.6,8.64,14.23,6,13.31c3.15-.41,6.16-1,6.33-4.35-3.42-1.37-5.17,2.16-7.52,3.16,1.4-1.56,3.23-4.59,2-7.52C3.1,4.35,4.14,8.81,3.23,11.33,2.65,9.08,2,5.75,0,5.28V0H26.22c.44,2.88,4.57,2.07,6.69,3.26-3.12.31-5.67,1.19-5.94,4.35,4.29,1,5.71-3,7.51-3.16h0c-1.4,1.71-3.72,5.09-2,7.51,3,0,3.87-4.69,2.72-7.27l.24,0a2,2,0,0,0,1.19-.39c-.46,2.93-.22,6.5,3.76,6.85,1.66-3.07-2.52-5.6-2.37-7.13C39.33,5.68,43,7.32,45.18,5.64,44.89,2.37,40.7,3,38.06,2.07c2.23-.29,4.37-.67,5.5-2.07H66.94c.84,2.57,3,4.46,4.67,6.19l0,.06C68.75,4.12,60.78.48,60.18,4.68c-.54,3.79,6.43,3.69,10.64,4.23a2,2,0,0,0,.08.26c-4.69.81-9.28,1.73-9.93,6.6a8.75,8.75,0,0,0,1,.38l.31.06a4.11,4.11,0,0,0,.67.12l.32,0a4.26,4.26,0,0,0,.62,0l.29,0a4.67,4.67,0,0,0,.65-.13l.19-.05c2.78-.84,4.88-3.72,7.29-4.94l-.09.13c-.16.25-.33.52-.52.8l0,.07-.31.48-.13.2-.3.48c0,.07-.09.14-.13.22l-.29.48-.14.25-.27.5-.14.25-.25.52-.12.26c-.08.17-.15.35-.23.53s-.07.17-.11.26l-.18.54a2.67,2.67,0,0,0-.09.26c-.06.18-.1.36-.15.54a2.61,2.61,0,0,0-.06.27,5.07,5.07,0,0,0-.09.54c0,.09,0,.18,0,.27s0,.36,0,.54,0,.18,0,.27,0,.35,0,.52a2.48,2.48,0,0,0,0,.27c0,.18.08.35.12.52s0,.17.07.25a5.31,5.31,0,0,0,.23.55l.09.21a4.68,4.68,0,0,0,.47.72c4.4-.31,5.74-7.59,4-11.48a1.66,1.66,0,0,1-.58-.08l-.06,0a2,2,0,0,1-.44-.23h0l.19-.06a3,3,0,0,0,.91.16,2.92,2.92,0,0,0,2.92-2.91,2.89,2.89,0,0,0-.17-.93,1.31,1.31,0,0,0,0-.28c1,.69.94,2.39.4,3.56,2.66,1.52,9.26,6.17,11.87,1.59-1.5-3.64-6.82-3.48-11.08-4.36,4.67-.73,9.26-1.55,9.9-6.33C82.56-1,79,4.23,76,6.27A29.12,29.12,0,0,0,79.44,0H101V5.28a2.64,2.64,0,0,0-1.52.12A4.92,4.92,0,0,0,101,10.21v1.08c-1.76-1-4.2-1.76-5.88-.35.16,2.87,3.57,2.49,5.88,3.21v.46c-2.72.39-4.84,1.38-5.09,4.24A5.33,5.33,0,0,0,101,17.38V20a4.09,4.09,0,0,0,0,2.3V43.36a2.36,2.36,0,0,0-2.32-.25C98,46,99.81,47.51,101,48.76v.76c-1.75-1.28-4.73-2.51-6.67-.87.18,3.22,4.46,2.35,6.67,3.54v0c-3.09.32-5.61,1.2-5.88,4.35,3,.68,4.58-1,5.88-2.19v1.41c-.91,1.64-1.45,3.58-.34,5.13.12,0,.23,0,.34,0V77.27c-.69-3.67-2.14-6.58-5.51-7.58-.09.31-.33.46-.79.4-1.43,5.07,2.22,8,4.7,10.61l0,.06C96.5,78.63,88.52,75,87.93,79.19c-.54,3.79,6.43,3.69,10.64,4.23a2.58,2.58,0,0,0,.08.26c-4.69.81-9.28,1.73-9.93,6.59a5.9,5.9,0,0,0,1,.38l.31.07a5.57,5.57,0,0,0,.67.12l.32,0c.21,0,.42,0,.62,0l.29,0c.22,0,.44-.08.65-.13l.19,0c2.78-.84,4.87-3.72,7.29-5l-.09.14c-.16.25-.34.51-.52.8a.16.16,0,0,0,0,.07c-.11.15-.21.31-.32.48l-.12.2-.3.47-.13.23c-.1.15-.19.32-.29.48l-.14.25-.27.49-.14.26c-.09.17-.17.34-.25.52l-.12.25-.23.53c0,.09-.07.18-.11.27a4.72,4.72,0,0,0-.18.53c0,.09-.07.18-.09.27s-.1.36-.15.54a2.61,2.61,0,0,0-.06.27,5.07,5.07,0,0,0-.09.54c0,.09,0,.18,0,.27s0,.35,0,.53,0,.18,0,.27,0,.35,0,.53a2.06,2.06,0,0,0,0,.26c0,.18.08.36.12.53s0,.17.07.25a3.65,3.65,0,0,0,.23.54,1.33,1.33,0,0,0,.09.21,5.3,5.3,0,0,0,.47.73A4.44,4.44,0,0,0,101,94.87ZM1.62,86.32c.71,4.63,1.95,10.62,7.12,9.5C9.36,91.34,5.3,84,1.62,86.32ZM86,23.21c0,2.15,2.75,1.47,4,2.38-1.84.14-3.07.89-3.56,2.37,1.72,1.24,3-.75,4.35-1.18-.48,1.23-1.47,2-1.19,4,2.79.67,1.8-2.43,2.77-3.57.14,1.84.89,3.07,2.38,3.57,1.51-1.61-1.43-3.69-.8-4.36.85,1,3.53,1.89,4,0-.71-1.13-2.76-.93-4-1.58,1.63-.36,3.21-.76,3.57-2.38-1.6-1.51-3.68,1.43-4.36.79.86-.67,1.74-2.72.79-3.95-2.15-.05-1.58,2.64-2.37,3.95-.14-1.84-.89-3.06-2.37-3.56C88,21.37,89.74,22.9,90.38,24,89.58,23.17,87.44,22.19,86,23.21Zm-11.2-11.4c.71,4.63,2,10.62,7.12,9.5C82.58,16.83,78.51,9.47,74.83,11.81ZM67.1,34.52c.18,3.25,4.53,2.33,6.73,3.56-3.12.31-5.67,1.19-5.94,4.35,4.28,1,5.71-3,7.51-3.16h0c-1.4,1.71-3.72,5.09-2,7.51,3,0,3.86-4.69,2.72-7.27l.24,0a2.06,2.06,0,0,0,1.19-.39c-.46,2.93-.22,6.5,3.76,6.85C83,42.93,78.83,40.4,79,38.87c1.27,1.63,4.94,3.27,7.12,1.59-.29-3.28-4.48-2.65-7.12-3.57,3.14-.41,6.15-1,6.33-4.35-3.42-1.37-5.17,2.16-7.52,3.17,1.4-1.57,3.23-4.6,2-7.53-3.69-.26-2.65,4.21-3.56,6.73-.71-2.74-1.44-7.07-4.75-5.93-.94,4.1,3.06,5.37,3.16,7.12C73.19,34.67,69.41,32.57,67.1,34.52Zm.25,23.92c-.8-.84-2.94-1.82-4.35-.79,0,2.15,2.75,1.47,4,2.37-1.84.14-3.06.89-3.56,2.38,1.73,1.23,3-.76,4.36-1.19-.48,1.24-1.47,2-1.19,4,2.79.68,1.8-2.43,2.77-3.57.14,1.85.89,3.07,2.38,3.57,1.51-1.6-1.44-3.68-.8-4.36.85,1,3.53,1.89,4,0-.71-1.13-2.76-.93-4-1.58,1.63-.36,3.21-.76,3.57-2.38-1.61-1.51-3.69,1.44-4.36.8.85-.68,1.74-2.72.79-4-2.15,0-1.58,2.64-2.37,4-.14-1.84-.89-3.07-2.38-3.57C64.93,55.81,66.71,57.34,67.35,58.44Zm-8-35.84c-3.69-.26-2.65,4.21-3.56,6.73C55,26.59,54.3,22.26,51,23.39c-.94,4.11,3.07,5.37,3.16,7.13-1.43-1.43-5.21-3.53-7.52-1.59.18,3.25,4.53,2.33,6.73,3.57-3.12.31-5.67,1.19-5.93,4.35,4.28,1,5.7-3,7.5-3.16h0c-1.4,1.71-3.72,5.1-2,7.51,3,0,3.87-4.69,2.72-7.27l.24,0a2,2,0,0,0,1.19-.39c-.45,2.93-.22,6.49,3.76,6.84,1.66-3.06-2.52-5.6-2.37-7.12,1.27,1.63,4.94,3.26,7.12,1.58-.29-3.27-4.48-2.64-7.12-3.56,3.15-.42,6.16-1,6.33-4.36-3.42-1.37-5.17,2.16-7.52,3.17C58.72,28.55,60.55,25.52,59.3,22.6Zm-13.84-10c0,2.15,2.76,1.46,4,2.37-1.84.14-3.07.89-3.56,2.37,1.72,1.24,3-.75,4.35-1.18-.48,1.24-1.46,2-1.19,4,2.79.68,1.8-2.43,2.78-3.57.13,1.85.89,3.07,2.37,3.57,1.52-1.6-1.43-3.68-.79-4.36.85,1,3.53,1.89,4,0-.71-1.13-2.76-.93-4-1.58,1.62-.36,3.2-.76,3.56-2.38-1.6-1.51-3.68,1.44-4.35.8.85-.68,1.74-2.73.79-4-2.16,0-1.58,2.64-2.37,4-.14-1.84-.9-3.07-2.38-3.57-1.23,1.73.54,3.26,1.19,4.36C49,12.52,46.87,11.54,45.46,12.57ZM32.93,19.83c0,2.15,2.75,1.47,4,2.38-1.84.14-3.07.89-3.56,2.37,1.72,1.24,3-.76,4.35-1.19-.48,1.24-1.47,2-1.19,4,2.79.68,1.8-2.42,2.77-3.56.14,1.84.89,3.07,2.38,3.56,1.52-1.6-1.43-3.68-.79-4.35.85,1,3.53,1.89,4,0-.72-1.14-2.76-.94-4-1.58,1.62-.36,3.2-.76,3.56-2.38-1.6-1.52-3.68,1.43-4.35.79.85-.67,1.73-2.72.79-4-2.16,0-1.59,2.64-2.38,4-.14-1.84-.89-3.07-2.37-3.56-1.24,1.72.54,3.25,1.18,4.35C36.48,19.79,34.34,18.81,32.93,19.83Zm-15-3.9c0,1.74,2.23,1.19,3.21,1.93a2.94,2.94,0,0,0-2.89,1.92c1.4,1,2.46-.61,3.53-1-.39,1-1.19,1.59-1,3.2,2.26.55,1.46-2,2.24-2.88A2.92,2.92,0,0,0,25,22c1.23-1.29-1.16-3-.64-3.52.68.78,2.86,1.53,3.2,0-.58-.92-2.23-.76-3.2-1.28,1.31-.29,2.59-.62,2.88-1.93-1.3-1.23-3,1.16-3.53.64.7-.54,1.41-2.2.65-3.2-1.75,0-1.29,2.13-1.93,3.2a2.92,2.92,0,0,0-1.92-2.88c-1,1.39.44,2.63,1,3.52C20.82,15.9,19.09,15.11,17.94,15.93Zm8.4,28.71a1.83,1.83,0,0,0,.08.25c-4.7.82-9.29,1.74-9.93,6.6a6.84,6.84,0,0,0,1,.38l.31.07c.22.05.45.09.67.12l.32,0c.21,0,.42,0,.62,0l.29,0c.22,0,.43-.08.65-.13l.19,0c2.78-.85,4.87-3.73,7.29-5l-.09.13c-.16.26-.34.52-.52.8l0,.07-.32.48-.12.21-.3.47-.13.22-.29.49-.14.24-.27.5-.14.26c-.09.17-.17.34-.25.51l-.12.26-.23.53a2,2,0,0,1-.11.26c-.07.18-.13.36-.19.54s-.06.18-.08.27a5.44,5.44,0,0,0-.15.54,2.61,2.61,0,0,0-.06.27,5.07,5.07,0,0,0-.09.54c0,.09,0,.18,0,.27s0,.35,0,.53,0,.18,0,.27,0,.35.05.53,0,.17,0,.26.09.35.13.53a2.33,2.33,0,0,0,.07.25,4.16,4.16,0,0,0,.23.54,1.89,1.89,0,0,0,.09.21,5.3,5.3,0,0,0,.47.73c4.4-.31,5.74-7.59,4-11.48a1.74,1.74,0,0,1-.59-.09h-.05a3.17,3.17,0,0,1-.45-.23h0l.19-.07a2.76,2.76,0,0,0,.91.16A2.91,2.91,0,0,0,32.09,44a2.78,2.78,0,0,0-.17-.92,1.43,1.43,0,0,0,0-.29c1,.7.93,2.39.4,3.57,2.66,1.51,9.26,6.16,11.87,1.58-1.51-3.64-6.82-3.47-11.08-4.35,4.67-.74,9.26-1.56,9.89-6.34C38.08,34.75,34.52,40,31.53,42c1.85-3,5.35-7.38,3.17-11.87-5.35.11-4.5,6.43-5.43,11H29.1c-.5-4.85-1.75-8.95-5.88-10.17-.09.31-.33.46-.79.39-1.43,5.08,2.22,8,4.7,10.62l-.05.06c-2.81-2.13-10.79-5.77-11.38-1.57C15.16,44.2,22.13,44.09,26.34,44.64Zm4,2.89c.71,4.64,1.95,10.62,7.12,9.5C38.09,52.56,34,45.19,30.35,47.53ZM12.42,32.31c-.72-1.14-2.76-.94-4-1.59,1.62-.35,3.2-.75,3.56-2.37-1.6-1.52-3.68,1.43-4.35.79.85-.67,1.73-2.72.79-4-2.16,0-1.59,2.64-2.38,4-.14-1.84-.89-3.07-2.37-3.56-1.24,1.72.54,3.25,1.18,4.35C4.09,29.1,2,28.12.54,29.14c0,2.15,2.75,1.47,4,2.38-1.84.14-3.07.89-3.56,2.37,1.72,1.23,3-.76,4.35-1.19-.48,1.24-1.47,2-1.19,4,2.79.68,1.8-2.42,2.77-3.56.14,1.84.89,3.07,2.38,3.56,1.52-1.6-1.43-3.68-.79-4.35C9.31,33.28,12,34.2,12.42,32.31Zm4.24,32.81c.14,1.85.89,3.07,2.38,3.57,1.51-1.6-1.44-3.68-.79-4.36.85,1,3.52,1.89,4,0-.72-1.13-2.77-.93-4-1.58,1.62-.36,3.2-.76,3.56-2.38-1.6-1.51-3.68,1.44-4.36.8.86-.68,1.74-2.72.8-4-2.16-.05-1.59,2.64-2.38,4-.14-1.84-.89-3.07-2.37-3.57-1.24,1.73.54,3.26,1.18,4.36-.8-.84-2.94-1.82-4.35-.79,0,2.15,2.75,1.47,4,2.37-1.84.14-3.07.89-3.56,2.38,1.72,1.23,3-.76,4.35-1.19-.48,1.24-1.47,2-1.19,4C16.68,69.37,15.69,66.26,16.66,65.12ZM36.27,81.23C36,78,31.79,78.58,29.15,77.66c3.15-.41,6.16-1,6.33-4.35-3.42-1.37-5.17,2.16-7.52,3.17,1.4-1.57,3.23-4.6,2-7.52-3.69-.26-2.65,4.21-3.56,6.72-.7-2.74-1.44-7.07-4.75-5.93-.94,4.1,3.07,5.37,3.16,7.12-1.43-1.43-5.21-3.53-7.52-1.58.18,3.25,4.53,2.33,6.73,3.56-3.12.31-5.67,1.19-5.94,4.35,4.29,1,5.71-3,7.51-3.16h0c-1.4,1.71-3.72,5.09-2,7.51,3,0,3.87-4.69,2.72-7.27l.24,0a2,2,0,0,0,1.19-.39c-.46,2.93-.22,6.5,3.76,6.85,1.66-3.07-2.52-5.6-2.37-7.13C30.42,81.27,34.09,82.91,36.27,81.23Zm2.24-11.84c2.79.67,1.8-2.43,2.77-3.57.13,1.84.89,3.07,2.37,3.57,1.52-1.61-1.43-3.69-.79-4.36.85,1,3.53,1.89,4,0-.71-1.13-2.76-.93-4-1.58,1.62-.36,3.2-.76,3.56-2.38-1.6-1.51-3.68,1.43-4.35.79.85-.67,1.74-2.72.79-4-2.16,0-1.58,2.64-2.37,4-.14-1.84-.89-3.06-2.38-3.56-1.23,1.72.54,3.25,1.19,4.36-.8-.84-2.95-1.82-4.36-.8,0,2.15,2.76,1.47,4,2.38-1.84.14-3.07.89-3.56,2.37,1.72,1.24,3-.75,4.35-1.18C39.21,66.66,38.23,67.39,38.51,69.39ZM48.43,84c-.58-.92-2.24-.75-3.21-1.28,1.31-.29,2.59-.61,2.89-1.92-1.3-1.23-3,1.16-3.53.64.69-.55,1.41-2.21.64-3.21-1.75,0-1.29,2.14-1.93,3.21a2.93,2.93,0,0,0-1.92-2.89c-1,1.4.44,2.64,1,3.53-.65-.68-2.38-1.47-3.52-.64,0,1.74,2.23,1.19,3.2,1.92a2.91,2.91,0,0,0-2.88,1.93c1.39,1,2.45-.62,3.52-1-.39,1-1.19,1.59-1,3.21,2.26.55,1.46-2,2.24-2.89a2.94,2.94,0,0,0,1.93,2.89c1.23-1.3-1.16-3-.64-3.53C45.91,84.74,48.08,85.48,48.43,84Zm.26-35c0,2.15,2.76,1.47,4,2.38-1.84.14-3.07.89-3.56,2.37,1.72,1.23,3-.76,4.35-1.19-.48,1.24-1.46,2-1.18,4C55,57.13,54.05,54,55,52.89c.13,1.84.89,3.07,2.37,3.56,1.52-1.6-1.43-3.68-.79-4.35.85,1,3.53,1.88,4,0-.71-1.14-2.76-.94-4-1.59,1.62-.35,3.2-.75,3.56-2.37-1.6-1.52-3.68,1.43-4.35.79.85-.67,1.74-2.72.79-4-2.16,0-1.58,2.64-2.37,4-.14-1.84-.9-3.07-2.38-3.56-1.23,1.72.54,3.25,1.19,4.35C52.25,48.89,50.1,47.91,48.69,48.93Zm12.19,27.9c1.28,1.63,4.94,3.27,7.13,1.58-.29-3.27-4.48-2.64-7.13-3.56,3.15-.41,6.16-1,6.33-4.35-3.42-1.38-5.17,2.16-7.52,3.16,1.41-1.57,3.23-4.59,2-7.52C58,65.88,59,70.35,58.11,72.87c-.7-2.74-1.44-7.07-4.75-5.94-.93,4.11,3.07,5.37,3.17,7.13-1.44-1.43-5.21-3.53-7.52-1.59.18,3.26,4.53,2.34,6.73,3.57-3.12.31-5.67,1.19-5.94,4.35,4.28,1,5.71-3,7.51-3.16h0c-1.4,1.71-3.71,5.1-2,7.52,3,0,3.87-4.7,2.73-7.28a1.81,1.81,0,0,0,.23,0,2,2,0,0,0,1.19-.39C59,80,59.28,83.6,63.26,84,64.91,80.89,60.74,78.36,60.88,76.83ZM78,90.29c-.72-1.14-2.76-.94-4-1.59,1.62-.35,3.2-.75,3.56-2.37-1.6-1.52-3.68,1.43-4.35.79.85-.67,1.74-2.72.79-4-2.16,0-1.59,2.64-2.38,4-.14-1.84-.89-3.07-2.37-3.56-1.24,1.72.54,3.25,1.18,4.35-.8-.83-2.94-1.81-4.35-.79,0,2.15,2.75,1.47,4,2.38-1.84.14-3.07.89-3.56,2.37,1.72,1.23,3-.76,4.35-1.19-.48,1.24-1.47,2-1.19,4,2.79.68,1.8-2.42,2.77-3.56.14,1.84.89,3.07,2.38,3.56,1.52-1.6-1.43-3.68-.79-4.35C74.93,91.26,77.61,92.18,78,90.29Zm8.39-14.46c-.72-1.13-2.76-.93-4-1.58,1.62-.36,3.2-.75,3.56-2.38-1.6-1.51-3.68,1.44-4.35.8.85-.68,1.73-2.72.79-4-2.16,0-1.59,2.64-2.38,4-.14-1.84-.89-3.07-2.37-3.57-1.24,1.73.54,3.26,1.18,4.36-.8-.84-2.94-1.82-4.35-.79,0,2.15,2.75,1.47,4,2.37-1.84.14-3.07.89-3.56,2.38,1.72,1.23,3-.76,4.35-1.19-.48,1.24-1.47,2-1.19,4,2.79.68,1.8-2.43,2.77-3.57.14,1.85.89,3.07,2.38,3.57,1.52-1.6-1.43-3.68-.79-4.36C83.32,76.8,86,77.72,86.43,75.83Zm.32-20.56c.13,1.84.89,3.07,2.37,3.56,1.52-1.6-1.43-3.68-.79-4.35.85,1,3.53,1.89,4,0-.71-1.13-2.76-.93-4-1.58,1.62-.36,3.2-.76,3.56-2.38-1.6-1.51-3.68,1.43-4.35.79.85-.67,1.74-2.72.79-4-2.16,0-1.58,2.64-2.37,4-.14-1.84-.9-3.06-2.38-3.56-1.23,1.72.54,3.25,1.19,4.36-.8-.84-3-1.82-4.36-.8,0,2.15,2.76,1.47,4,2.38-1.84.14-3.07.89-3.56,2.37,1.72,1.24,3-.75,4.35-1.18-.48,1.23-1.46,2-1.18,3.95C86.76,59.51,85.77,56.41,86.75,55.27Z"/><path class="cls-2" d="M78.18,36.5v0h0Z"/><path class="cls-2" d="M4.41,50.63v0h0Z"/><path class="cls-2" d="M2.42,15.69c-.79.09-1.5.89-2.42,1.69V20A12.24,12.24,0,0,1,2.43,15.7Z"/><path class="cls-2" d="M0,52.19v0H.06Z"/><path class="cls-2" d="M100.09,85.69l.21-.1-.1-.07C100.16,85.58,100.13,85.64,100.09,85.69Z"/><path class="cls-2" d="M100.3,85.59h0a2.38,2.38,0,0,0,.45.23h0s.11,0,.16,0v-.22a3.59,3.59,0,0,1-.47-.12Z"/><path class="cls-2" d="M0,10.21v1.08a8.72,8.72,0,0,1,1.64,1.23C1.6,11.75.8,11.07,0,10.21Z"/><path class="cls-2" d="M60.09,74.45v0h0S60.09,74.46,60.09,74.45Z"/><path class="cls-2" d="M5.2,12.92h0Z"/><path class="cls-2" d="M0,14.15v.46l.85-.11A5,5,0,0,0,0,14.15Z"/><path class="cls-3" d="M38.51,69.39c-.28-2,.7-2.73,1.18-4-1.32.43-2.63,2.42-4.35,1.18.49-1.48,1.72-2.23,3.56-2.37-1.2-.91-4-.23-4-2.38,1.41-1,3.56,0,4.36.8-.65-1.11-2.42-2.64-1.19-4.36,1.49.5,2.24,1.72,2.38,3.56.79-1.31.21-4,2.37-4,1,1.23.06,3.28-.79,4,.67.64,2.75-2.3,4.35-.79-.36,1.62-1.94,2-3.56,2.38,1.2.65,3.25.45,4,1.58-.43,1.89-3.11,1-4,0-.64.67,2.31,2.75.79,4.36-1.48-.5-2.24-1.73-2.37-3.57C40.31,67,41.3,70.06,38.51,69.39Zm1.43-5.48a1.06,1.06,0,1,0,1.06-1A1,1,0,0,0,39.94,63.91Z"/><path class="cls-4" d="M41,64.94a1,1,0,1,0-1.06-1A1,1,0,0,0,41,64.94Z"/><path class="cls-3" d="M48.69,48.93c1.41-1,3.56,0,4.36.79-.65-1.1-2.42-2.63-1.19-4.35,1.48.49,2.24,1.72,2.38,3.56.79-1.32.21-4,2.37-4,1,1.24.06,3.29-.79,4,.67.64,2.75-2.31,4.35-.79-.36,1.62-1.94,2-3.56,2.37,1.2.65,3.25.45,4,1.59-.43,1.88-3.11,1-4,0-.64.67,2.31,2.75.79,4.35C55.92,56,55.16,54.73,55,52.89c-1,1.14,0,4.24-2.77,3.56-.28-2,.7-2.72,1.18-4-1.32.43-2.63,2.42-4.35,1.19.49-1.48,1.72-2.23,3.56-2.37C51.45,50.4,48.66,51.08,48.69,48.93Zm5,2a1.06,1.06,0,1,0,1.06-1A1,1,0,0,0,53.69,51Z"/><path class="cls-4" d="M54.75,52a1,1,0,1,0-1.06-1A1,1,0,0,0,54.75,52Z"/><path class="cls-3" d="M67.35,58.44c-.64-1.1-2.42-2.63-1.19-4.36,1.49.5,2.24,1.73,2.38,3.57.79-1.32.22-4,2.37-4,1,1.24.06,3.28-.79,4,.67.64,2.75-2.31,4.36-.8-.36,1.62-1.94,2-3.57,2.38,1.2.65,3.25.45,4,1.58-.43,1.89-3.11,1-4,0-.64.68,2.31,2.76.8,4.36-1.49-.5-2.24-1.72-2.38-3.57-1,1.14,0,4.25-2.77,3.57-.28-2,.71-2.72,1.19-4-1.32.43-2.63,2.42-4.36,1.19.5-1.49,1.72-2.24,3.56-2.38-1.2-.9-4-.22-4-2.37C64.41,56.62,66.55,57.6,67.35,58.44ZM68,59.69a1.06,1.06,0,1,0,1-1A1,1,0,0,0,68,59.69Z"/><path class="cls-4" d="M69.05,60.72a1,1,0,1,0-1-1A1,1,0,0,0,69.05,60.72Z"/><path class="cls-3" d="M86.75,55.27c-1,1.14,0,4.24-2.77,3.56-.28-2,.7-2.72,1.18-3.95-1.32.43-2.63,2.42-4.35,1.18.49-1.48,1.72-2.23,3.56-2.37-1.2-.91-4-.23-4-2.38,1.41-1,3.56,0,4.36.8-.65-1.11-2.42-2.64-1.19-4.36,1.48.5,2.24,1.72,2.38,3.56.79-1.31.21-4,2.37-4,1,1.23.06,3.28-.79,4,.67.64,2.75-2.3,4.35-.79-.36,1.62-1.94,2-3.56,2.38,1.2.65,3.25.45,4,1.58-.43,1.89-3.11,1-4,0-.64.67,2.31,2.75.79,4.35C87.64,58.34,86.88,57.11,86.75,55.27Zm.78-1.91a1.06,1.06,0,1,0-1.06,1A1,1,0,0,0,87.53,53.36Z"/><path class="cls-4" d="M86.47,52.33a1,1,0,1,0,1.06,1A1,1,0,0,0,86.47,52.33Z"/><path class="cls-3" d="M86,23.21c1.41-1,3.55,0,4.35.8-.64-1.11-2.42-2.64-1.18-4.36,1.48.5,2.23,1.72,2.37,3.56.79-1.31.22-4,2.37-3.95,1,1.23.07,3.28-.79,3.95.68.64,2.76-2.3,4.36-.79-.36,1.62-1.94,2-3.57,2.38,1.2.65,3.25.45,4,1.58-.43,1.89-3.11,1-4,0-.63.67,2.31,2.75.8,4.36-1.49-.5-2.24-1.73-2.38-3.57-1,1.14,0,4.24-2.77,3.57-.28-2,.71-2.73,1.19-4-1.32.43-2.63,2.42-4.35,1.18.49-1.48,1.72-2.23,3.56-2.37C88.78,24.68,86,25.36,86,23.21Zm5,2.05a1.06,1.06,0,1,0,1.06-1A1,1,0,0,0,91,25.26Z"/><path class="cls-4" d="M92.09,26.29a1,1,0,1,0-1.06-1A1,1,0,0,0,92.09,26.29Z"/><path class="cls-3" d="M78,90.29c-.43,1.89-3.11,1-4,0-.64.67,2.31,2.75.79,4.35-1.49-.49-2.24-1.72-2.38-3.56-1,1.14,0,4.24-2.77,3.56-.28-2,.71-2.72,1.19-4-1.32.43-2.63,2.42-4.35,1.19.49-1.48,1.72-2.23,3.56-2.37-1.21-.91-4-.23-4-2.38,1.41-1,3.55,0,4.35.79-.64-1.1-2.42-2.63-1.18-4.35,1.48.49,2.23,1.72,2.37,3.56.79-1.32.22-4,2.38-4,1,1.24.06,3.29-.79,4,.67.64,2.75-2.31,4.35-.79-.36,1.62-1.94,2-3.56,2.37C75.28,89.35,77.32,89.15,78,90.29Zm-4.77-1.12a1.06,1.06,0,1,0-1,1A1,1,0,0,0,73.27,89.17Z"/><path class="cls-4" d="M72.22,88.14a1,1,0,1,0,1,1A1,1,0,0,0,72.22,88.14Z"/><path class="cls-3" d="M45.46,12.57c1.41-1,3.56-.05,4.36.79-.65-1.1-2.42-2.63-1.19-4.36,1.48.5,2.24,1.73,2.38,3.57.79-1.32.21-4,2.37-4,.95,1.23.06,3.28-.79,4,.67.64,2.75-2.31,4.35-.8-.36,1.62-1.94,2-3.56,2.38,1.2.65,3.25.45,4,1.58-.43,1.89-3.11,1-4,0-.64.68,2.31,2.76.79,4.36-1.48-.5-2.24-1.72-2.37-3.57-1,1.14,0,4.25-2.78,3.57-.27-2,.71-2.72,1.19-4-1.32.43-2.63,2.42-4.35,1.18.49-1.48,1.72-2.23,3.56-2.37C48.22,14,45.43,14.72,45.46,12.57Zm5,2a1.06,1.06,0,1,0,1.06-1A1,1,0,0,0,50.46,14.61Z"/><path class="cls-4" d="M51.52,15.64a1,1,0,1,0-1.06-1A1,1,0,0,0,51.52,15.64Z"/><path class="cls-3" d="M32.93,19.83c1.41-1,3.55,0,4.35.79-.64-1.1-2.42-2.63-1.18-4.35,1.48.49,2.23,1.72,2.37,3.56.79-1.32.22-4,2.38-4,.94,1.24.06,3.29-.79,4,.67.64,2.75-2.31,4.35-.79-.36,1.62-1.94,2-3.56,2.38,1.2.64,3.24.44,4,1.58-.43,1.89-3.11,1-4,0-.64.67,2.31,2.75.79,4.35-1.49-.49-2.24-1.72-2.38-3.56-1,1.14,0,4.24-2.77,3.56-.28-2,.71-2.72,1.19-4-1.32.43-2.63,2.43-4.35,1.19.49-1.48,1.72-2.23,3.56-2.37C35.68,21.3,32.89,22,32.93,19.83Zm5,2.05a1.06,1.06,0,1,0,1.06-1A1,1,0,0,0,37.93,21.88Z"/><path class="cls-4" d="M39,22.9a1,1,0,1,0-1.06-1A1,1,0,0,0,39,22.9Z"/><path class="cls-3" d="M17.94,15.93c1.15-.82,2.88,0,3.53.64-.52-.89-2-2.13-1-3.52a2.92,2.92,0,0,1,1.92,2.88c.64-1.07.18-3.24,1.93-3.2.76,1,.05,2.66-.65,3.2.55.52,2.23-1.87,3.53-.64-.29,1.31-1.57,1.64-2.88,1.93,1,.52,2.62.36,3.2,1.28-.34,1.53-2.52.78-3.2,0-.52.54,1.87,2.23.64,3.52a2.92,2.92,0,0,1-1.93-2.88c-.78.92,0,3.43-2.24,2.88-.23-1.61.57-2.2,1-3.2-1.07.35-2.13,2-3.53,1a2.94,2.94,0,0,1,2.89-1.92C20.17,17.12,17.91,17.67,17.94,15.93Zm4,1.66a.86.86,0,1,0,.86-.83A.85.85,0,0,0,22,17.59Z"/><path class="cls-4" d="M22.85,18.42a.83.83,0,1,0-.86-.83A.85.85,0,0,0,22.85,18.42Z"/><path class="cls-3" d="M48.43,84c-.35,1.53-2.52.79-3.21,0-.52.55,1.87,2.23.64,3.53a2.94,2.94,0,0,1-1.93-2.89c-.78.93,0,3.44-2.24,2.89-.23-1.62.57-2.2,1-3.21-1.07.35-2.13,2-3.52,1A2.91,2.91,0,0,1,42,83.31c-1-.73-3.23-.18-3.2-1.92,1.14-.83,2.87,0,3.52.64-.52-.89-2-2.13-1-3.53a2.93,2.93,0,0,1,1.92,2.89c.64-1.07.18-3.25,1.93-3.21.77,1,.05,2.66-.64,3.21.54.52,2.23-1.87,3.53-.64-.3,1.31-1.58,1.63-2.89,1.92C46.19,83.2,47.85,83,48.43,84ZM44.57,83a.86.86,0,1,0-.86.84A.85.85,0,0,0,44.57,83Z"/><path class="cls-4" d="M43.71,82.21a.84.84,0,1,0,.86.83A.85.85,0,0,0,43.71,82.21Z"/><path class="cls-3" d="M12.42,32.31c-.43,1.89-3.11,1-4,0-.64.67,2.31,2.75.79,4.35C7.76,36.17,7,34.94,6.87,33.1c-1,1.14,0,4.24-2.77,3.56-.28-2,.71-2.72,1.19-4C4,33.13,2.66,35.12.94,33.89c.49-1.48,1.72-2.23,3.56-2.37-1.21-.91-4-.23-4-2.38,1.41-1,3.55,0,4.35.79-.64-1.1-2.42-2.63-1.18-4.35,1.48.49,2.23,1.72,2.37,3.56.79-1.32.22-4,2.38-4,.94,1.24.06,3.29-.79,4,.67.64,2.75-2.31,4.35-.79-.36,1.62-1.94,2-3.56,2.37C9.66,31.37,11.7,31.17,12.42,32.31ZM7.65,31.19a1.06,1.06,0,1,0-1.05,1A1,1,0,0,0,7.65,31.19Z"/><path class="cls-4" d="M6.6,30.16a1,1,0,1,0,1.05,1A1,1,0,0,0,6.6,30.16Z"/><path class="cls-3" d="M16.66,65.12c-1,1.14,0,4.25-2.77,3.57-.28-2,.71-2.72,1.19-4-1.32.43-2.63,2.42-4.35,1.19.49-1.49,1.72-2.24,3.56-2.38-1.21-.9-4-.22-4-2.37,1.41-1,3.55-.05,4.35.79-.64-1.1-2.42-2.63-1.18-4.36,1.48.5,2.23,1.73,2.37,3.57.79-1.32.22-4,2.38-4,.94,1.24.06,3.28-.8,4,.68.64,2.76-2.31,4.36-.8-.36,1.62-1.94,2-3.56,2.38,1.19.65,3.24.45,4,1.58-.44,1.89-3.11,1-4,0-.65.68,2.3,2.76.79,4.36C17.55,68.19,16.8,67,16.66,65.12Zm.78-1.91a1.06,1.06,0,0,0-2.11,0,1.06,1.06,0,0,0,2.11,0Z"/><path class="cls-4" d="M16.39,62.19a1,1,0,1,0,1.05,1A1,1,0,0,0,16.39,62.19Z"/><path class="cls-3" d="M86.43,75.83c-.43,1.89-3.11,1-4,0-.64.68,2.31,2.76.79,4.36-1.49-.5-2.24-1.72-2.38-3.57-1,1.14,0,4.25-2.77,3.57-.28-2,.71-2.72,1.19-4-1.32.43-2.63,2.42-4.35,1.19.49-1.49,1.72-2.24,3.56-2.38-1.21-.9-4-.22-4-2.37,1.41-1,3.55,0,4.35.79-.64-1.1-2.42-2.63-1.18-4.36,1.48.5,2.23,1.73,2.37,3.57.79-1.32.22-4,2.38-4,.94,1.24.06,3.28-.79,4,.67.64,2.75-2.31,4.35-.8-.36,1.63-1.94,2-3.56,2.38C83.67,74.9,85.71,74.7,86.43,75.83Zm-4.77-1.12a1.06,1.06,0,1,0-1,1A1,1,0,0,0,81.66,74.71Z"/><path class="cls-4" d="M80.61,73.69a1,1,0,1,0,1,1A1,1,0,0,0,80.61,73.69Z"/><path class="cls-3" d="M71.56,6.25C68.75,4.12,60.78.48,60.18,4.68c-.54,3.79,6.43,3.69,10.64,4.23a2.74,2.74,0,0,1-.08-.64A2.88,2.88,0,0,1,71.56,6.25Z"/><path class="cls-3" d="M76.4,7.34a1.31,1.31,0,0,0,0-.28c1,.69.94,2.39.4,3.56,2.66,1.52,9.26,6.17,11.87,1.59-1.5-3.64-6.82-3.48-11.08-4.36,4.67-.73,9.26-1.55,9.9-6.33C82.56-1,79,4.23,76,6.27A29.12,29.12,0,0,0,79.44,0h-5c-.26,1.77-.37,3.68-.71,5.36A2.89,2.89,0,0,1,76.4,7.34Z"/><path class="cls-3" d="M70.9,9.17c-4.69.81-9.28,1.73-9.93,6.6a8.75,8.75,0,0,0,1,.38l.31.06a4.11,4.11,0,0,0,.67.12l.32,0a4.26,4.26,0,0,0,.62,0l.29,0a4.67,4.67,0,0,0,.65-.13l.19-.05c2.78-.84,4.88-3.72,7.29-4.94l.11-.17.1.06.19-.06A2.92,2.92,0,0,1,70.9,9.17Z"/><path class="cls-3" d="M73.58,5.36A22.17,22.17,0,0,0,72.46,0H66.94c.84,2.57,3,4.46,4.67,6.19A2.92,2.92,0,0,1,73.58,5.36Z"/><path class="cls-3" d="M82,21.31c.63-4.48-3.44-11.84-7.12-9.5C75.54,16.44,76.78,22.43,82,21.31Z"/><path class="cls-3" d="M72.25,11.32c-.16.25-.33.52-.52.8l0,.07-.31.48-.13.2-.3.48c0,.07-.09.14-.13.22l-.29.48-.14.25-.27.5-.14.25-.25.52-.12.26c-.08.17-.15.35-.23.53s-.07.17-.11.26l-.18.54a2.67,2.67,0,0,0-.09.26c-.06.18-.1.36-.15.54a2.61,2.61,0,0,0-.06.27,5.07,5.07,0,0,0-.09.54c0,.09,0,.18,0,.27s0,.36,0,.54,0,.18,0,.27,0,.35,0,.52a2.48,2.48,0,0,0,0,.27c0,.18.08.35.12.52s0,.17.07.25a5.31,5.31,0,0,0,.23.55l.09.21a4.68,4.68,0,0,0,.47.72c4.4-.31,5.74-7.59,4-11.48a1.66,1.66,0,0,1-.58-.08l-.06,0a2,2,0,0,1-.44-.23h0l-.21.11Z"/><path class="cls-5" d="M71.61,6.19l0,.06.5.41Z"/><path class="cls-5" d="M73.75,5.36h-.17c0,.17,0,.34.06.51C73.68,5.71,73.71,5.53,73.75,5.36Z"/><path class="cls-5" d="M70.82,8.91a2,2,0,0,0,.08.26L71.66,9Z"/><path class="cls-5" d="M73.49,10.75l-.09,0a4.44,4.44,0,0,0-.66.25,3,3,0,0,0,.91.16,2.92,2.92,0,0,0,2.92-2.91,2.89,2.89,0,0,0-.17-.93,6.83,6.83,0,0,1-2,3.28A3.74,3.74,0,0,0,73.49,10.75Z"/><path class="cls-5" d="M73.75,5.36c0,.17-.07.35-.11.51,0-.17,0-.34-.06-.51a2.92,2.92,0,0,0-2,.83l.45.47-.5-.41a2.88,2.88,0,0,0-.82,2,2.74,2.74,0,0,0,.08.64l.84.13-.76.13A2.92,2.92,0,0,0,72.74,11a4.44,4.44,0,0,1,.66-.25l.09,0a3.74,3.74,0,0,1,.94-.13,6.83,6.83,0,0,0,2-3.28A2.89,2.89,0,0,0,73.75,5.36Z"/><path class="cls-3" d="M3.19,81.85a1.36,1.36,0,0,0,0-.28c1,.69.93,2.38.4,3.56,2.66,1.52,9.26,6.17,11.87,1.58C14,83.07,8.65,83.24,4.39,82.36c4.67-.74,9.26-1.56,9.89-6.34C9.35,73.53,5.79,78.74,2.8,80.77c1.85-3,5.35-7.38,3.17-11.87-5.35.12-4.5,6.44-5.43,11A2.89,2.89,0,0,1,3.19,81.85Z"/><path class="cls-3" d="M.37,79.87C.28,79,.16,78.1,0,77.27V79.9Z"/><path class="cls-3" d="M1.62,86.32c.71,4.63,1.95,10.62,7.12,9.5C9.36,91.34,5.3,84,1.62,86.32Z"/><path class="cls-3" d="M.43,85.92A1.4,1.4,0,0,1,0,85.86v9A11,11,0,0,0,.43,85.92Z"/><path class="cls-5" d="M.28,85.25l-.09,0L0,85.35v.29a3.27,3.27,0,0,0,.44,0,2.91,2.91,0,0,0,2.92-2.91,2.83,2.83,0,0,0-.17-.92,6.91,6.91,0,0,1-2,3.28A4.25,4.25,0,0,0,.28,85.25Z"/><path class="cls-5" d="M.54,79.87H.37l.06.51C.47,80.21.5,80,.54,79.87Z"/><path class="cls-5" d="M0,85.35l.19-.07.09,0a4.25,4.25,0,0,1,.94-.12,6.91,6.91,0,0,0,2-3.28,2.89,2.89,0,0,0-2.65-2c0,.17-.07.34-.11.51l-.06-.51L0,79.9Z"/><path class="cls-3" d="M26.34,44.64a2.82,2.82,0,0,1-.08-.65,2.86,2.86,0,0,1,.82-2c-2.81-2.13-10.79-5.77-11.38-1.57C15.16,44.2,22.13,44.09,26.34,44.64Z"/><path class="cls-3" d="M26.42,44.89c-4.7.82-9.29,1.74-9.93,6.6a6.84,6.84,0,0,0,1,.38l.31.07c.22.05.45.09.67.12l.32,0c.21,0,.42,0,.62,0l.29,0c.22,0,.43-.08.65-.13l.19,0c2.78-.85,4.87-3.73,7.29-5a1.63,1.63,0,0,0,.11-.17l.1.07.19-.07A2.9,2.9,0,0,1,26.42,44.89Z"/><path class="cls-3" d="M23.22,30.91c-.09.31-.33.46-.79.39-1.43,5.08,2.22,8,4.7,10.62a2.87,2.87,0,0,1,2-.84C28.6,36.23,27.35,32.13,23.22,30.91Z"/><path class="cls-3" d="M31.92,43.07a1.43,1.43,0,0,0,0-.29c1,.7.93,2.39.4,3.57,2.66,1.51,9.26,6.16,11.87,1.58-1.51-3.64-6.82-3.47-11.08-4.35,4.67-.74,9.26-1.56,9.89-6.34C38.08,34.75,34.52,40,31.53,42c1.85-3,5.35-7.38,3.17-11.87-5.35.11-4.5,6.43-5.43,11A2.88,2.88,0,0,1,31.92,43.07Z"/><path class="cls-3" d="M30.35,47.53c.71,4.64,1.95,10.62,7.12,9.5C38.09,52.56,34,45.19,30.35,47.53Z"/><path class="cls-3" d="M27.77,47c-.16.26-.34.52-.52.8l0,.07-.32.48-.12.21-.3.47-.13.22-.29.49-.14.24-.27.5-.14.26c-.09.17-.17.34-.25.51l-.12.26-.23.53a2,2,0,0,1-.11.26c-.07.18-.13.36-.19.54s-.06.18-.08.27a5.44,5.44,0,0,0-.15.54,2.61,2.61,0,0,0-.06.27,5.07,5.07,0,0,0-.09.54c0,.09,0,.18,0,.27s0,.35,0,.53,0,.18,0,.27,0,.35.05.53,0,.17,0,.26.09.35.13.53a2.33,2.33,0,0,0,.07.25,4.16,4.16,0,0,0,.23.54,1.89,1.89,0,0,0,.09.21,5.3,5.3,0,0,0,.47.73c4.4-.31,5.74-7.59,4-11.48a1.74,1.74,0,0,1-.59-.09h-.05a3.17,3.17,0,0,1-.45-.23h0l-.21.1Z"/><path class="cls-5" d="M29,46.47l-.09,0a5.84,5.84,0,0,0-.66.24,2.76,2.76,0,0,0,.91.16A2.91,2.91,0,0,0,32.09,44a2.78,2.78,0,0,0-.17-.92,6.91,6.91,0,0,1-2,3.28A4.25,4.25,0,0,0,29,46.47Z"/><path class="cls-5" d="M29.27,41.09H29.1l.06.52C29.2,41.43,29.23,41.26,29.27,41.09Z"/><path class="cls-5" d="M26.34,44.64a1.83,1.83,0,0,0,.08.25l.76-.13Z"/><path class="cls-5" d="M27.13,41.92l-.05.06a5.56,5.56,0,0,1,.49.41C27.43,42.23,27.28,42.07,27.13,41.92Z"/><path class="cls-5" d="M26.34,44.64l.84.12-.76.13a2.9,2.9,0,0,0,1.84,1.85,5.84,5.84,0,0,1,.66-.24l.09,0a4.25,4.25,0,0,1,.94-.12,6.91,6.91,0,0,0,2-3.28,2.88,2.88,0,0,0-2.65-2c0,.17-.07.34-.11.51l-.06-.52a2.87,2.87,0,0,0-2,.84c.15.15.3.31.44.47a5.56,5.56,0,0,0-.49-.41,2.86,2.86,0,0,0-.82,2A2.82,2.82,0,0,0,26.34,44.64Z"/><path class="cls-3" d="M73.44,46.79c3,0,3.86-4.69,2.72-7.27a2.13,2.13,0,0,1-.75-.24C74,41,71.69,44.37,73.44,46.79Z"/><path class="cls-3" d="M73.83,38.08c-3.12.31-5.67,1.19-5.94,4.35,4.28,1,5.71-3,7.51-3.16a2,2,0,1,1,2.77-2.75v0a2.08,2.08,0,0,1,.26,1,2,2,0,0,1-.85,1.65c-.46,2.93-.22,6.5,3.76,6.85C83,42.93,78.83,40.4,79,38.87c1.27,1.63,4.94,3.27,7.12,1.59-.29-3.28-4.48-2.65-7.12-3.57,3.14-.41,6.15-1,6.33-4.35-3.42-1.37-5.17,2.16-7.52,3.17,1.4-1.57,3.23-4.6,2-7.53-3.69-.26-2.65,4.21-3.56,6.73-.71-2.74-1.44-7.07-4.75-5.93-.94,4.1,3.06,5.37,3.16,7.12-1.43-1.43-5.21-3.53-7.52-1.58C67.28,37.77,71.63,36.85,73.83,38.08Z"/><polygon class="cls-5" points="75.4 39.27 75.41 39.28 75.41 39.27 75.4 39.27"/><path class="cls-5" d="M78.17,36.52c-.72.85-.8,2.34-2.36,2.35a4.48,4.48,0,0,1,.35.65l.24,0a2.06,2.06,0,0,0,1.19-.39,21.47,21.47,0,0,1,.59-2.63Z"/><path class="cls-5" d="M78.17,36.52a2,2,0,1,0-2.77,2.75h0a2.13,2.13,0,0,0,.75.24,4.48,4.48,0,0,0-.35-.65C77.37,38.86,77.45,37.37,78.17,36.52Z"/><path class="cls-5" d="M78.44,37.5a2.08,2.08,0,0,0-.26-1,21.47,21.47,0,0,0-.59,2.63A2,2,0,0,0,78.44,37.5Z"/><path class="cls-3" d="M3.18,15.94a2.13,2.13,0,0,1-.75-.24A12.24,12.24,0,0,0,0,20v2.3a3.2,3.2,0,0,0,.46.9C3.42,23.24,4.33,18.52,3.18,15.94Z"/><path class="cls-3" d="M1.38,13.92a2,2,0,0,1,3.81-1h0v0a2.08,2.08,0,0,1,.26,1,2,2,0,0,1-.85,1.65c-.46,2.93-.22,6.5,3.76,6.85C10,19.35,5.85,16.82,6,15.29c1.27,1.63,4.94,3.27,7.12,1.59C12.83,13.6,8.64,14.23,6,13.31c3.15-.41,6.16-1,6.33-4.35-3.42-1.37-5.17,2.16-7.52,3.16,1.4-1.56,3.23-4.59,2-7.52C3.1,4.35,4.14,8.81,3.23,11.33,2.65,9.08,2,5.75,0,5.28v4.93c.8.86,1.6,1.54,1.64,2.31A8.72,8.72,0,0,0,0,11.29v2.86a5,5,0,0,1,.85.35L0,14.61v2.77c.92-.8,1.63-1.6,2.42-1.69A2,2,0,0,1,1.38,13.92Z"/><path class="cls-5" d="M5.19,12.93c-.72.86-.8,2.35-2.36,2.36a3.68,3.68,0,0,1,.35.65l.24,0a2.06,2.06,0,0,0,1.19-.39,23,23,0,0,1,.59-2.63Z"/><polygon class="cls-5" points="2.42 15.69 2.43 15.7 2.44 15.69 2.42 15.69"/><path class="cls-5" d="M5.46,13.92a2.08,2.08,0,0,0-.26-1,23,23,0,0,0-.59,2.63A2,2,0,0,0,5.46,13.92Z"/><path class="cls-5" d="M5.19,12.93a2,2,0,1,0-2.77,2.76h0a2.13,2.13,0,0,0,.75.24,3.68,3.68,0,0,0-.35-.65C4.39,15.28,4.47,13.79,5.19,12.93Z"/><path class="cls-3" d="M32.91,3.26c-3.12.31-5.67,1.19-5.94,4.35,4.29,1,5.71-3,7.51-3.16A2,2,0,1,1,37.25,1.7v0a2,2,0,0,1,.26,1,2,2,0,0,1-.85,1.65c-.46,2.93-.22,6.5,3.76,6.85,1.66-3.07-2.52-5.6-2.37-7.13C39.33,5.68,43,7.32,45.18,5.64,44.89,2.37,40.7,3,38.06,2.07c2.23-.29,4.37-.67,5.5-2.07H38.27a6.45,6.45,0,0,1-1.4.89,9.87,9.87,0,0,0,.7-.89H35.31s0,.06,0,.09l0-.09H33a2.2,2.2,0,0,1,.67,1.28A8.82,8.82,0,0,0,32,0H26.22C26.66,2.88,30.79,2.07,32.91,3.26Z"/><path class="cls-3" d="M32.52,12c3,0,3.87-4.69,2.72-7.27a2.13,2.13,0,0,1-.75-.24C33.09,6.17,30.77,9.55,32.52,12Z"/><path class="cls-5" d="M37.25,1.7c-.72.85-.8,2.34-2.36,2.35a3.68,3.68,0,0,1,.35.65l.24,0a2,2,0,0,0,1.19-.39,22.79,22.79,0,0,1,.59-2.62Z"/><path class="cls-5" d="M34.48,4.45h0Z"/><path class="cls-5" d="M37.52,2.68a2,2,0,0,0-.26-1,22.79,22.79,0,0,0-.59,2.62A2,2,0,0,0,37.52,2.68Z"/><path class="cls-5" d="M37.25,1.7a2,2,0,1,0-2.77,2.75h0a2.13,2.13,0,0,0,.75.24,3.68,3.68,0,0,0-.35-.65C36.45,4,36.53,2.55,37.25,1.7Z"/><path class="cls-3" d="M2.39,53.65a1.89,1.89,0,0,1-.75-.24A15.3,15.3,0,0,0,0,55.79v5.1C2.69,60.56,3.49,56.13,2.39,53.65Z"/><path class="cls-3" d="M.59,51.64a2,2,0,0,1,3.81-1v0a2,2,0,0,1-.58,2.62c-.46,2.94-.22,6.5,3.76,6.85C9.24,57.07,5.06,54.53,5.2,53c1.28,1.64,5,3.27,7.13,1.59C12,51.32,7.85,51.94,5.2,51c3.15-.41,6.16-1,6.34-4.35C8.11,45.3,6.36,48.83,4,49.84c1.4-1.57,3.22-4.6,2-7.52-3.69-.26-2.65,4.21-3.56,6.73-.49-1.94-1-4.65-2.43-5.69v5.4a2.63,2.63,0,0,1,.85,1.47A8.36,8.36,0,0,0,0,49.52v2.67l.06,0H0v2.16a3.25,3.25,0,0,1,1.63-1A2,2,0,0,1,.59,51.64Z"/><path class="cls-5" d="M4.4,50.65C3.68,51.5,3.6,53,2,53a4.48,4.48,0,0,1,.35.65l.24,0a2,2,0,0,0,1.19-.39,23,23,0,0,1,.58-2.62Z"/><path class="cls-5" d="M1.63,53.4h0Z"/><path class="cls-5" d="M4.66,51.64a2,2,0,0,0-.26-1,23,23,0,0,0-.58,2.62A2,2,0,0,0,4.66,51.64Z"/><path class="cls-5" d="M4.4,50.65A2,2,0,1,0,1.63,53.4h0a1.89,1.89,0,0,0,.75.24A4.48,4.48,0,0,0,2,53C3.6,53,3.68,51.5,4.4,50.65Z"/><path class="cls-3" d="M23.61,87.56c3,0,3.87-4.69,2.72-7.27a2.13,2.13,0,0,1-.75-.24C24.18,81.76,21.86,85.14,23.61,87.56Z"/><path class="cls-3" d="M29.15,77.66c3.15-.41,6.16-1,6.33-4.35-3.42-1.37-5.17,2.16-7.52,3.17,1.4-1.57,3.23-4.6,2-7.52-3.69-.26-2.65,4.21-3.56,6.72-.7-2.74-1.44-7.07-4.75-5.93-.94,4.1,3.07,5.37,3.16,7.12-1.43-1.43-5.21-3.53-7.52-1.58.18,3.25,4.53,2.33,6.73,3.56-3.12.31-5.67,1.19-5.94,4.35,4.29,1,5.71-3,7.51-3.16a2,2,0,1,1,2.77-2.75v0a2,2,0,0,1,.26,1,2,2,0,0,1-.85,1.65c-.46,2.93-.22,6.5,3.76,6.85,1.66-3.07-2.52-5.6-2.37-7.13,1.27,1.63,4.94,3.27,7.12,1.59C36,78,31.79,78.58,29.15,77.66Z"/><polygon class="cls-5" points="25.57 80.04 25.58 80.05 25.59 80.04 25.57 80.04"/><path class="cls-5" d="M28.34,77.29c-.72.85-.8,2.34-2.36,2.35a3.36,3.36,0,0,1,.35.65l.24,0a2,2,0,0,0,1.19-.39,22.79,22.79,0,0,1,.59-2.62Z"/><path class="cls-5" d="M28.61,78.27a2,2,0,0,0-.26-1,22.79,22.79,0,0,0-.59,2.62A2,2,0,0,0,28.61,78.27Z"/><path class="cls-5" d="M28.34,77.29A2,2,0,1,0,25.57,80h0a2.13,2.13,0,0,0,.75.24,3.36,3.36,0,0,0-.35-.65C27.54,79.63,27.62,78.14,28.34,77.29Z"/><path class="cls-3" d="M68,78.41c-.29-3.27-4.48-2.64-7.13-3.56,3.15-.41,6.16-1,6.33-4.35-3.42-1.38-5.17,2.16-7.52,3.16,1.41-1.57,3.23-4.59,2-7.52C58,65.88,59,70.35,58.11,72.87c-.7-2.74-1.44-7.07-4.75-5.94-.93,4.11,3.07,5.37,3.17,7.13-1.44-1.43-5.21-3.53-7.52-1.59.18,3.26,4.53,2.34,6.73,3.57-3.12.31-5.67,1.19-5.94,4.35,4.28,1,5.71-3,7.51-3.16a2,2,0,1,1,2.77-2.76v0s0,0,0,0a2,2,0,0,1-.59,2.63C59,80,59.28,83.6,63.26,84c1.65-3.06-2.52-5.59-2.38-7.12C62.16,78.46,65.82,80.1,68,78.41Z"/><path class="cls-3" d="M55.34,84.75c3,0,3.87-4.7,2.73-7.28a2,2,0,0,1-.76-.24C55.91,78.94,53.6,82.33,55.34,84.75Z"/><path class="cls-5" d="M60.08,74.47c-.73.85-.81,2.34-2.36,2.36a3.9,3.9,0,0,1,.35.64,1.81,1.81,0,0,0,.23,0,2,2,0,0,0,1.19-.39,23,23,0,0,1,.59-2.63Z"/><path class="cls-5" d="M57.31,77.23Z"/><path class="cls-5" d="M60.08,74.47a2,2,0,1,0-2.77,2.76h0a2,2,0,0,0,.76.24,3.9,3.9,0,0,0-.35-.64C59.27,76.81,59.35,75.32,60.08,74.47Z"/><path class="cls-5" d="M60.34,75.46a2,2,0,0,0-.26-1,23,23,0,0,0-.59,2.63A2,2,0,0,0,60.34,75.46Z"/><path class="cls-3" d="M53,41.2c3,0,3.87-4.69,2.72-7.27a1.94,1.94,0,0,1-.75-.24C53.54,35.4,51.22,38.79,53,41.2Z"/><path class="cls-3" d="M55.74,29.33C55,26.59,54.3,22.26,51,23.39c-.94,4.11,3.07,5.37,3.16,7.13-1.43-1.43-5.21-3.53-7.52-1.59.18,3.25,4.53,2.33,6.73,3.57-3.12.31-5.67,1.19-5.93,4.35,4.28,1,5.7-3,7.5-3.16a2,2,0,1,1,2.77-2.76l0,0a0,0,0,0,0,0,0,2,2,0,0,1,.26,1,2,2,0,0,1-.85,1.65c-.45,2.93-.22,6.49,3.76,6.84,1.66-3.06-2.52-5.6-2.37-7.12,1.27,1.63,4.94,3.26,7.12,1.58-.29-3.27-4.48-2.64-7.12-3.56,3.15-.42,6.16-1,6.33-4.36-3.42-1.37-5.17,2.16-7.52,3.17,1.4-1.57,3.23-4.6,2-7.52C55.61,22.34,56.65,26.81,55.74,29.33Z"/><polygon class="cls-5" points="54.93 33.69 54.94 33.69 54.95 33.68 54.93 33.69"/><path class="cls-5" d="M57.7,30.93c-.72.85-.8,2.34-2.36,2.36a3.28,3.28,0,0,1,.35.64l.24,0a2,2,0,0,0,1.19-.39,23,23,0,0,1,.59-2.63Z"/><path class="cls-5" d="M57.7,30.93a2,2,0,1,0-2.77,2.76h0a1.94,1.94,0,0,0,.75.24,3.28,3.28,0,0,0-.35-.64C56.9,33.27,57,31.78,57.7,30.93Z"/><path class="cls-5" d="M58,31.92a2,2,0,0,0-.26-1,23,23,0,0,0-.59,2.63A2,2,0,0,0,58,31.92Z"/><path class="cls-3" d="M98.65,83.68c-4.69.81-9.28,1.73-9.93,6.59a5.9,5.9,0,0,0,1,.38l.31.07a5.57,5.57,0,0,0,.67.12l.32,0c.21,0,.42,0,.62,0l.29,0c.22,0,.44-.08.65-.13l.19,0c2.78-.84,4.87-3.72,7.29-5,0,0,.07-.11.11-.17l.1.07.19-.07A2.91,2.91,0,0,1,98.65,83.68Z"/><path class="cls-3" d="M99.31,80.76C96.5,78.63,88.52,75,87.93,79.19c-.54,3.79,6.43,3.69,10.64,4.23a2.75,2.75,0,0,1-.08-.65A2.86,2.86,0,0,1,99.31,80.76Z"/><path class="cls-3" d="M95.45,69.69c-.09.31-.33.46-.79.4-1.43,5.07,2.22,8,4.7,10.61a2.94,2.94,0,0,1,1.6-.8V77.27C100.27,73.6,98.82,70.69,95.45,69.69Z"/><path class="cls-3" d="M100.75,85.82a2.38,2.38,0,0,1-.45-.23h0l-.21.1-.09.14c-.16.25-.34.51-.52.8a.16.16,0,0,0,0,.07c-.11.15-.21.31-.32.48l-.12.2-.3.47-.13.23c-.1.15-.19.32-.29.48l-.14.25-.27.49-.14.26c-.09.17-.17.34-.25.52l-.12.25-.23.53c0,.09-.07.18-.11.27a4.72,4.72,0,0,0-.18.53c0,.09-.07.18-.09.27s-.1.36-.15.54a2.61,2.61,0,0,0-.06.27,5.07,5.07,0,0,0-.09.54c0,.09,0,.18,0,.27s0,.35,0,.53,0,.18,0,.27,0,.35,0,.53a2.06,2.06,0,0,0,0,.26c0,.18.08.36.12.53s0,.17.07.25a3.65,3.65,0,0,0,.23.54,1.33,1.33,0,0,0,.09.21,5.3,5.3,0,0,0,.47.73A4.44,4.44,0,0,0,101,94.87v-9s-.11,0-.16,0Z"/><path class="cls-5" d="M100.49,85.52a3.59,3.59,0,0,0,.47.12v-.29Z"/><path class="cls-5" d="M99.36,80.7l0,.06a5.56,5.56,0,0,1,.49.41C99.66,81,99.51,80.86,99.36,80.7Z"/><path class="cls-5" d="M98.57,83.42a2.58,2.58,0,0,0,.08.26l.76-.14Z"/><path class="cls-5" d="M99.8,81.17a5.56,5.56,0,0,0-.49-.41,2.86,2.86,0,0,0-.82,2,2.75,2.75,0,0,0,.08.65l.84.12-.76.14a2.91,2.91,0,0,0,1.84,1.84l.47-.17V79.9a2.94,2.94,0,0,0-1.6.8C99.51,80.86,99.66,81,99.8,81.17Z"/><path class="cls-3" d="M95.87,18.85A5.33,5.33,0,0,0,101,17.38V14.61C98.24,15,96.12,16,95.87,18.85Z"/><path class="cls-3" d="M101,22.31V20A4.09,4.09,0,0,0,101,22.31Z"/><path class="cls-3" d="M95.08,10.94c.16,2.87,3.57,2.49,5.88,3.21V11.29C99.2,10.24,96.76,9.53,95.08,10.94Z"/><path class="cls-3" d="M99.44,5.4A4.92,4.92,0,0,0,101,10.21V5.28A2.64,2.64,0,0,0,99.44,5.4Z"/><path class="cls-3" d="M95.08,56.57c3,.68,4.58-1,5.88-2.19V52.22C97.87,52.54,95.35,53.42,95.08,56.57Z"/><path class="cls-3" d="M100.62,60.92c.12,0,.23,0,.34,0v-5.1C100.05,57.43,99.51,59.37,100.62,60.92Z"/><path class="cls-3" d="M94.29,48.65c.18,3.22,4.46,2.35,6.67,3.54V49.52C99.21,48.24,96.23,47,94.29,48.65Z"/><path class="cls-3" d="M98.64,43.11C98,46,99.81,47.51,101,48.76v-5.4A2.36,2.36,0,0,0,98.64,43.11Z"/><path class="cls-3" d="M79.18,95.35c-3.37.08-4.27,2.61-4.72,5.61h5A7.32,7.32,0,0,0,79.18,95.35Z"/><path class="cls-3" d="M67.7,96.14c-.09.31-.33.46-.79.4a7.35,7.35,0,0,0,0,4.42h5.52A7.22,7.22,0,0,0,67.7,96.14Z"/><path class="cls-3" d="M30.54,95.12c-.7,3.07,1.37,4.55,2.49,5.84h2.23C34.57,98.22,33.81,94,30.54,95.12Z"/><path class="cls-3" d="M38.27,101h5.29a3.75,3.75,0,0,0,.83-2.28C41.67,97.59,40,99.59,38.27,101Z"/><path class="cls-3" d="M38.85,94.33c-3.65-.26-2.68,4.1-3.54,6.63h2.26C38.78,99.28,39.89,96.77,38.85,94.33Z"/><path class="cls-3" d="M26.18,100.66c0,.11,0,.2,0,.3H32C30.22,99.94,27.83,99.27,26.18,100.66Z"/></pattern></defs><title>flatfinalAsset 2</title><g id="Layer_2" data-name="Layer 2"><g id="Layer_1-2" data-name="Layer 1"><path class="cls-6" d="M51,110.47c-3.54-3.93-10.12-2.64-14.61-2.29-1.82.15-3.21,2.41-3.32,4.35a4.89,4.89,0,0,0,2.41,4.59,5.29,5.29,0,0,0,2,1.92,17.33,17.33,0,0,0,12.29,1.17,4,4,0,0,0,2-1.15C54.7,117.22,54,111.76,51,110.47Z"/><path class="cls-6" d="M129,109.12c-4.13-3.3-10.41-1-14.79.13-1.76.44-2.77,2.9-2.57,4.83a4.91,4.91,0,0,0,3.13,4.14,5.25,5.25,0,0,0,2.31,1.56,17.34,17.34,0,0,0,12.32-.85,4,4,0,0,0,1.75-1.45C133.77,115.19,132.19,109.91,129,109.12Z"/><path class="cls-7" d="M95,213.15a1.51,1.51,0,0,0-.09-.18,41.5,41.5,0,0,0,0-5.9,2.37,2.37,0,0,0-.72-1.4c0-5,1-12.81-2.72-15-2.4-1.41-6.94-.54-9.5-.77-5.94-.51-12-.13-17.84-.9-2.15-.28-2.6,2.27-1.5,3.62a2,2,0,0,0-.62,2.1c1.11,4.2,1.08,10.34.6,16.24a2.1,2.1,0,0,0-1.07,1.77c-.25,4-1.45,7.78-.51,11.74a1.93,1.93,0,0,0,.33.71c-.44,13.11-1,26.64,4.2,38.58.76,1.73,3.66,1.25,4-.52.11-.53.19-1.07.27-1.61,1.54-5,2.18-10.15,3.45-15.23a2.1,2.1,0,0,0-.14-1.5c1.09-1.89,2.35-3.75,3.45-5.81a2.25,2.25,0,0,0,.25-1c.36-.39.73-.79,1.09-1.2l1,.64c5.54,6.58,1,14.15,5.4,21.7,1.44,2.46,4.46,3.41,6.64,1.23,3.57-3.57,2.32-12,3.38-16.42C97.15,232.36,98.88,225,95,213.15Z"/><path class="cls-8" d="M101.49,159.06c-.16-6.34.07-13.94-3.24-19.59a8.1,8.1,0,0,0-1.42.33v.72c0,.17.26.21.54.17,1.81,3.49,2.18,7.46,2.39,11.39-1.25.06-2.4.63-3.62.77l0-.52c0-.53-1.32-.25-1.36.18-.7,8-.49,16-1.09,24-.47,6.32-.54,12.63-.53,19,0,2.18-.47,8.5,1.73,10.32.36,3.21-.19,6.46.38,9.72a52.48,52.48,0,0,1,.75,15.37c-.87,7.66-3.65,14.84-4.11,22.54a29.12,29.12,0,0,1-1,7h-.14a2.41,2.41,0,0,0-1.55.73c-.33.29,1,.17,1.25-.06a2,2,0,0,0-.54,1c-.71.58-1.67.53-2.78-.19a7.77,7.77,0,0,1-3.34-5.64c-.58-3.49.37-7.11,0-10.63s-2.73-7.18-5-9.75a20,20,0,0,1,8-6l-.46.7c-.11.15,1.12.09,1.34-.24l.81-1.21c.17-.26-.86-.06-.91,0a21.81,21.81,0,0,0-9.33,6.21c-.51-.3-1.57.22-1.12.7l.27.3a33.56,33.56,0,0,0-6.11,12.45c-1,3.82-.84,7.7-1.56,11.55a8.55,8.55,0,0,1-.8,2.3c-.37.07-.75.31-.72.66,0,.09,0,.19,0,.29-.55.47-1.21.47-1.94-.62-1-1.48-1.25-3.55-1.57-5.25-.83-4.38-1.89-8.8-2.56-13.19-1-6.77-.45-13.73-.6-20.55-.14-6.55.08-13,.53-19.54.5-7.22.63-14.42,1-21.63,0-.17-.75-.11-1.14.11-.07-7.88-.35-15.77-.12-23.64l0,0c.08-.14.06-.23,0-.3,0-.6,0-1.2.06-1.8a.36.36,0,0,0-.12-.27,5.09,5.09,0,0,0-.51-2.53c-1.08-1.79-4.84.66-6.37-.3a.68.68,0,0,0-.48,0,81.68,81.68,0,0,1,1.29-12.83c.22-1.22.74-4.34,2.12-5.33l.66.25c-1.28,3.79,2.21,7.47,4.89,9.88A21.19,21.19,0,0,0,73,151l-.16.05a2.08,2.08,0,0,1,.71.14,2.85,2.85,0,0,1,.4,0h.12c.14,0,.3.06.44.09,1.8.24,4.11.18,6.07.6,7.22,0,14.17-2.93,16-10.84.12-.51-1.26-.3-1.36.17-2.06,9-10.47,10.58-18.32,9.56a7.19,7.19,0,0,0-1.12-.16c-.62-.1-1.24-.22-1.84-.35-4.81-1-15.89-7.36-14.25-13.7l.14,0a1.28,1.28,0,0,1,.28-1h0a4.78,4.78,0,0,1,.23-.45c.24-.4-.39-.44-.86-.29a.57.57,0,0,0-.51-.2,3.11,3.11,0,0,0-.44.07,18.47,18.47,0,0,0-1.72.87,9.75,9.75,0,0,0-2,4.29c-1.35,5-1.39,10.51-1.49,15.69-.16,8.23.44,16.42.59,24.64C54,190.36,53,201,54.83,211c.35,1.87,1.37,4.2,3.56,2.53a6.79,6.79,0,0,0,2.08-3.69c-.27,5.71-.26,11.38-.19,17.13.08,7.3-.29,14.54,1.25,21.73.91,4.27,1.44,8.81,2.72,13a5.9,5.9,0,0,0,.81,1.75,1.24,1.24,0,0,0-.45,1c0,.24.13.37.36.41,0,3.45.84,6.89.84,10.36,0,3.31-.15,6.65.06,10,.17,2.68.36,7.94,3.87,8.38,1.35.17,2.64-.9,3.54-1.74,1.55-1.46-.34-4.45-1.06-5.82-3.76-7.21-2-14.55-2.56-22.2,1.47-1.49,1.66-4.62,1.83-6.39.71-7,2.36-14.67,6.48-20.37a18.58,18.58,0,0,1,4.54,13.26c-.2,4-.64,7.89,2,11.14a8.39,8.39,0,0,0,1.39,1.36c-.68,7.15,1.43,14.61-.54,21.62-.67,2.44-3.44,2.73-3.47,5.5,0,1.4,1.44,2.15,2.67,2.06,3.9-.27,6.13-2.72,6.77-6.56,1.27-7.57.16-15.7,0-23.39a8,8,0,0,0,1.28-2.88,51,51,0,0,0,.85-8.73c.29-4.82,2.09-9.54,3.07-14.25a48.41,48.41,0,0,0,.93-16.66c-.42-2.94-1.21-5.72-1.3-8.72,0-1.48.14-2.93.13-4.39A2.76,2.76,0,0,0,99,204.57c2.75-6.09,2-14.2,2-20.75C101,175.56,101.69,167.32,101.49,159.06ZM60.13,201a65.34,65.34,0,0,1-1,7.76c-.15.72-1.53,5.86-2.47,3.62-1.79-4.27-1.28-10.09-1.39-14.6-.17-8.13,0-16.25-.35-24.38-.25-6-.59-12.22-.46-18.37a4.61,4.61,0,0,0,2.22.1c.93-.13,3-1.09,3.51,0a7.53,7.53,0,0,1,.29,3.1,3.07,3.07,0,0,0,0,1.24C60.11,173.34,61.14,187.19,60.13,201Zm10.12,84.06c.42,1,1,2,1.47,3a8.49,8.49,0,0,1,.59,1.62c-1.48,2.71-2.65,3.36-3.53,2-1.87-2.46-1.59-6.84-1.59-9.75v-9.51c0-2.66-.8-5.19-.83-7.84a3,3,0,0,0,2,0c.22,4.41-.46,8.84,0,13.25A25.27,25.27,0,0,0,70.25,285.07Zm19.59,1.53A7.19,7.19,0,0,1,88,290.15q-3.33,2.58-4.62,0a3.3,3.3,0,0,1,0-2c.29-1.4,2.55-2,3.08-3.38a15.7,15.7,0,0,0,.94-5c.32-5.45-.61-10.89-.24-16.33a3.26,3.26,0,0,0,2.57-.11,53.86,53.86,0,0,0,.35,5.77c.09,3.2.19,6.39.25,9.59A43.43,43.43,0,0,1,89.84,286.6ZM99.7,179.82c-.18,6.58.11,13.16-.73,19.71-.19,1.45-1.33,6.81-2.72,5.62,0-.19,0-.38-.07-.57a.48.48,0,0,0-.53-.36c-.08-.17-.16-.35-.24-.57-1.18-3.32-.89-7.33-.85-10.79.07-6.42.31-12.77.71-19.17.42-6.75.3-13.51.82-20.24a18.5,18.5,0,0,1,3.15-.69,1.81,1.81,0,0,0,.55-.12c.07,1.37.12,2.73.21,4.06C100.54,164.39,99.91,172.13,99.7,179.82Z"/><path class="cls-8" d="M91.71,189.78l-1.46-.37c-.44-.13-1.14.32-1.09.65l-2.51-.18-7.9-.65,0-.06a1.82,1.82,0,0,1-.33,0,5.41,5.41,0,0,1-1.57-.17s0,0,0,.06l-.41,0-4.16-.32-.23,0a2.06,2.06,0,0,1-.57-.09,1.45,1.45,0,0,1-.3,0,2.11,2.11,0,0,1-.68-.11v0c-1-.07-2.1-.13-3.16-.17-.89,0-2.59-.34-3.35.32s.39,1.05.9.61a28.79,28.79,0,0,1,4.13.15l1.58.11v0c0,.35.74.29,1.12.06,1.91.13,3.83.29,5.74.44,4.61.38,9.26,1,13.88,1,.27,0,.75-.23.75-.55v-.4C92.15,189.93,92,189.83,91.71,189.78Z"/><path class="cls-8" d="M92.92,180.56c-4.66.06-9.34.81-14,1.28l-.88.09h0a2.08,2.08,0,0,1-.78.15,1.84,1.84,0,0,1-.53-.08h-.07v.07c-2.22.2-4.43.38-6.66.48-1,0-5.07.57-5.72-.62-.25-.46-1.56,0-1.25.57.79,1.46,4.22,1.4,7.13,1.12a2.35,2.35,0,0,1,.54-.07l.23,0,.14,0a2.63,2.63,0,0,1,.5-.06h.08s0,0,0-.05c1.07-.12,2-.25,2.45-.29.86-.07,1.73-.15,2.59-.24v0a3.44,3.44,0,0,1,1.35-.17h0a141.69,141.69,0,0,1,14.35-1.32C93,181.44,93.85,180.55,92.92,180.56Z"/><path class="cls-8" d="M78.39,187.27c.66,0,2.82-1.61,2.07-1.61s-2.82,1.61-2.07,1.61Z"/><path class="cls-9" d="M28.06,92.44a.36.36,0,0,0,.5-.14c.21-.37.41-.4.54-.39,1,.08,2.71,3,3.06,3.88A3,3,0,0,1,31,98.93a5.83,5.83,0,0,1-3.81.74,14.43,14.43,0,0,1-5.56-1.77A6.68,6.68,0,0,1,19.18,96a1,1,0,0,1-.22-.81A2.27,2.27,0,0,1,20,94a.36.36,0,0,0,.16-.38.43.43,0,0,0-.32-.33c-4.07-1-6.55-3-7.37-6a7.55,7.55,0,0,1,.12-4.9,5.12,5.12,0,0,1,1.45-2,3.87,3.87,0,0,1,2.38-1.05h0a.4.4,0,0,0,.4-.37.39.39,0,0,0-.35-.43l-.18,0s0,0,0,0a.42.42,0,0,0-.11-.4.35.35,0,0,0-.35-.07c-5.24,1.41-8.94-2.79-10.29-4.66A23.52,23.52,0,0,1,1.13,63,14,14,0,0,1,3.7,52.59a13.31,13.31,0,0,1,10.37-5.48h.13a11.56,11.56,0,0,1,2.84.42.41.41,0,0,0,.44-.13.42.42,0,0,0,0-.48c-2.74-4.27-2.26-11.16,1.08-15.35a19.48,19.48,0,0,1,4.55-4.15c1.38-.9,3.92-2.12,5.52-.24a.42.42,0,0,0,.57,0,.4.4,0,0,0,.07-.51.37.37,0,0,0,.1-.33c-.63-3.83,1-8,2.28-10.77A16.54,16.54,0,0,1,38.44,8c5.29-3,12.63-3.18,20.15-.37a17.21,17.21,0,0,1,6.87,4.53.4.4,0,0,0,.47.09.4.4,0,0,0,.22-.41C65.84,9,67.58,6.59,71.3,4.73a28.1,28.1,0,0,1,4.34-1.64A29.26,29.26,0,0,1,82,1.72c4.41-.36,8.85.54,12.66,1.41a52.83,52.83,0,0,1,10.61,3.52A35.45,35.45,0,0,1,117.57,16a34.66,34.66,0,0,1,4.81,7.18,43.88,43.88,0,0,1,2.87,8.24.4.4,0,0,0,.23.29.37.37,0,0,0,.34,0c3-1.54,6.51-1.15,8.89-.56a20.23,20.23,0,0,1,8.43,4.4,11.36,11.36,0,0,1,4.1,8,16,16,0,0,1-3.14,9.67,18.17,18.17,0,0,1-7.62,6.38.38.38,0,0,0-.23.44.38.38,0,0,0,.37.32,15.1,15.1,0,0,1,7.16,2.1,12,12,0,0,1,5.37,5.33c1.08,2.49,0,5.46-1.31,7.42a9.53,9.53,0,0,1-4.63,3.66h-.43l0,.21a1.48,1.48,0,0,1-.09.35l-.17.44.46-.11.38-.1a8.1,8.1,0,0,1,6.37,3.74,4.24,4.24,0,0,1,.08,4.37,6.81,6.81,0,0,1-5,3.09,6.22,6.22,0,0,1-5.26-1.47.4.4,0,0,0-.56,0,.38.38,0,0,0,0,.54c.29.34.6.66.9,1s.76.8,1.1,1.23a3.37,3.37,0,0,1,.47,3.14c-.48,1.85-1.79,3.84-4,3.87h0A2.57,2.57,0,0,1,135,96.69a3.47,3.47,0,0,1,2.17-3.51.41.41,0,0,0,.15-.61c-.27-.37-.55-.74-.84-1.1-1.27-1.63-2.47-3.16-2.53-5.33A4.17,4.17,0,0,1,135.09,83a10.25,10.25,0,0,1,2.17-1.54c.23-.13.45-.27.67-.41a.37.37,0,0,0,.18-.36.4.4,0,0,0-.26-.33c-3.21-1.2-6.28-2.45-8.64-4.6a6,6,0,0,1-2-3.7,5.82,5.82,0,0,1,1.11-3.67l.4-.06.13,0,.1-.18a1.88,1.88,0,0,1,.14-.24l.32-.46-.45.06.25-.32a.37.37,0,0,0-.06-.54.41.41,0,0,0-.57.06c-.28.34-.51.65-.72.95a31,31,0,0,1-5.5.06c-2.46-.17-6-.64-8-2.76a10,10,0,0,1-2.19-4c0-.12.07-.24.1-.36l0-.22-.41-.13-.35-.11-.43-.17.13.6c0,.11,0,.23.08.34a9.69,9.69,0,0,1-.74,1.55,23,23,0,0,1-2.55,3.43,22.29,22.29,0,0,1-9.55,6.41,23.14,23.14,0,0,1-11,.79A35,35,0,0,1,76.69,69.8C70.08,66.52,65.53,61,64.2,54.55l.27-.7-.35.25L64,53.62l-.24.63-.5-.09.09.37,0,.08c-2.17,1.56-2.17,1.64-2.07,1.86A.48.48,0,0,0,61,57c-.21.24-.23.38-.21.47v0a10.25,10.25,0,0,1,.25,1.3,10.57,10.57,0,0,1-.09,3,12.7,12.7,0,0,1-2.26,5.22,15.85,15.85,0,0,1-7.78,5.9c-4.57,1.51-10.43,1.15-16.08-1a27.69,27.69,0,0,1-2.53-1.13l-.21-.07-.12.16-.16.2-.2.23.28.15.93.47c.33,1.32-.4,2.7-2.22,4.22a6.68,6.68,0,0,1-3.13,1.47c-.35.08-.7.12-1,.17l-.45.06L26,78l0,.14-.28,0,.24.11,0,.09-.1.26.27.07c.8.21,1.42,1,1.9,2.35a14.36,14.36,0,0,1,.63,4.8,14.71,14.71,0,0,1-.66,4.53c-.45,1.34-1,2-1.63,1.88a.38.38,0,0,0-.44.33.4.4,0,0,0,.33.47h.24a1.84,1.84,0,0,0,1.45-.82A.41.41,0,0,0,28.06,92.44Z"/><path class="cls-10" d="M106.56,60.82c-1,8.13-10.86,11.05-18.78,10-6.51-.9-12.71-3.81-16.7-8.49a17.07,17.07,0,0,1-3-17.11,9.28,9.28,0,0,1,7.92-6,7.77,7.77,0,0,1,6.2,2.71c1.08,1.41-.71,3.67-1.46,4.78-1.54,2.27,2.47,4.33,4,2.07,2-3,3.74-7.12.54-10.06-3.4-3.12-8.94-4.66-13.59-2.79-10,4-10.92,15.64-7.57,23.65,3.68,8.78,13.48,14,23.57,15.35C98.52,76.38,109.94,71,111.2,60.82,111.52,58.19,106.88,58.22,106.56,60.82Z"/><path class="cls-10" d="M58.24,56.61c1,3.6-1.62,9.2-6.25,11.45-4.09,2-9.8.89-13.45-.14-4-1.12-7.62-3.08-9.73-5.89-1-1.27-.77-2.43-.09-3.94.07-.14,3.18-4,3-1.18a18,18,0,0,0-.19,2.18c.12,2.35,5,2.06,4.86-.31s1-5-2.09-6.27c-2.87-1.13-5.75-.25-8,1.92-5.77,5.52-2.17,10.9,3.19,14.15A30.47,30.47,0,0,0,51.71,72C60,70,64.62,60.82,63,55.32,62.35,53.06,57.58,54.35,58.24,56.61Z"/><g class="cls-11"><path class="cls-12" d="M113.72,40.58c2.09-1.71,3.64-3.53,6.56-3.06,1.43.23,1.33-.14,1.39,1.47a12,12,0,0,1-1.35,5.21,2,2,0,0,0,2.26,2.94c1.18-.19,2.25-.5,2.6.94.22.89-.5,2.35-.81,3.13-1,2.39,2.9,3.42,3.86,1.06s1.68-5.6-.18-7.7c-1.66-1.86-4.3-1.65-6.53-1.29l2.26,2.94c1.31-2.83,4.06-10.64-.11-12.44-1.66-.71-4.86-.52-6.6-.19-2.39.46-4.36,2.67-6.18,4.16-2,1.63.85,4.45,2.83,2.83Z"/></g><g class="cls-11"><path class="cls-12" d="M111.6,57c-2,7.5,5.89,9.64,11.6,10.32,3.47.41,7.44,1.41,10.37-1,3.59-2.92,6.73-7.57,9.57-11.22,3.85-4.95,7-12.34,2.36-17.89-2.43-2.93-6.64-4.45-10.05-5.91a29.59,29.59,0,0,0-13.86-2.82c-2.56.16-2.58,4.16,0,4,5.62-.36,10.51,1.54,15.49,3.95,1.6.78,3.95,1.72,5.14,3,2.79,3.09,1.49,7.32-.26,10.38a52.74,52.74,0,0,1-8.83,11c-2.69,2.52-4.72,3-8.27,2.66-2.31-.26-10.75-.47-9.4-5.44.67-2.49-3.19-3.55-3.86-1.07Z"/></g><g class="cls-11"><path class="cls-12" d="M128.36,66.71c-.84,2.67-2,5.52,0,8a13.9,13.9,0,0,0,3.44,2.46,29.08,29.08,0,0,1,5.72,5.07l.89-3.35c-6.51,1.88-.84,10.9,3.58,11.86,2.51.54,3.59-3.32,1.07-3.86-.32-.07-4.08-4-3.59-4.14a2,2,0,0,0,.88-3.34,31.57,31.57,0,0,0-5.4-4.93c-.83-.59-2.61-1.18-3.12-2-.82-1.25,0-3.47.43-4.7.78-2.46-3.08-3.51-3.86-1.06Z"/></g><g class="cls-11"><path class="cls-12" d="M136.1,63.78c4.77.11,10.26,2.25,9.88,8-.2,3-2.26,3.39-4.28,5.11a2,2,0,0,0,0,2.83c1.25,1.18,2.61,1.9,2.73,3.66.13,2-1.52,4-2.8,5.42-1.74,1.89,1.08,4.72,2.83,2.83,2-2.17,3.9-4.85,4.22-7.88.36-3.33-1.87-4.71-4.15-6.86v2.83c1.78-1.51,4.06-1.49,5.09-3.84s.64-6.22.07-8.59c-1.31-5.52-8.62-7.36-13.59-7.48-2.58-.05-2.58,3.95,0,4Z"/></g><g class="cls-11"><path class="cls-12" d="M122.8,29.52a39.87,39.87,0,0,0-3.75-12.07c-1.86-3.37-5.11-4.95-8.35-6.77C103.85,6.83,97,2.3,89.2.68,82.65-.68,75.32-.2,69.81,3.92c-4.73,3.54-7.25,9.64-3.51,14.81,1.49,2.06,5,.07,3.45-2-5.07-7,5.49-12.18,11.08-12.66S91.89,5.27,96.9,7.64c4.31,2,8.36,4.58,12.52,6.9,3.42,1.91,5.86,3.77,7.3,7.59a46.73,46.73,0,0,1,2.22,8.45c.46,2.53,4.31,1.46,3.86-1.06Z"/></g><g class="cls-11"><path class="cls-12" d="M70.07,23.06c-.17-4.15-1.23-9.84-6.38-10.36-5.36-.54-4.95,5.59-6.33,9l1.39-1.4c.68-.2-.16-.26-.8-.6A12,12,0,0,0,56.19,19,7.31,7.31,0,0,0,52,18.87c-2.35.7-3.89,2.75-4.94,4.85-.86,1.71-1.75,3.6-1.13,5.49.87,2.67,4.46,4.55,6.8,5.69s4.33-2.33,2-3.45C51.64,30,48.6,28.35,51,24.8c2.75-4.1,5.31.05,8.32-.47,1.71-.3,2-1.67,2.38-3.14.2-.75.46-3.53,1-3.83,3.25-1.86,3.37,4.41,3.42,5.7.1,2.57,4.1,2.58,4,0Z"/></g><g class="cls-11"><path class="cls-12" d="M28.55,28c-2-.13-4.57-.82-6.4.13s-2.91,3.29-3.75,5c-.76,1.53-2.09,3.81-1.65,5.58.53,2.13,3,2.45,4.81,2a2,2,0,0,0,1.2-2.94c-1.3-2.38,2.07-4.46,4-4.42,2.57.06,2.57-3.94,0-4-5.12-.1-10.26,5.38-7.48,10.44l1.19-2.94c.47-.12-.43,2,.39.57.28-.51.43-1.15.67-1.69A24.07,24.07,0,0,1,23,33.07c.51-.83.72-1.25,1.64-1.38a20.9,20.9,0,0,1,3.93.27c2.57.18,2.55-3.82,0-4Z"/></g><g class="cls-11"><path class="cls-12" d="M63.86,14C59.72,11.19,50.5,5.54,45.54,9.11c-1.24.89-1.49,2.12-2.35,3.29-1.34,1.82-3,2.28-4.49,3.77-2.58,2.57-3.12,6.28-5.77,8.94-1.82,1.83,1,4.66,2.83,2.83A24.17,24.17,0,0,0,40,21.83c1.61-3,3.2-3.39,5.28-5.52,2.26-2.33,2.47-4.17,6.34-3.69,3.62.46,7.29,2.8,10.26,4.8,2.15,1.43,4.15-2,2-3.46Z"/></g><g class="cls-11"><path class="cls-12" d="M17.15,47.94C7.26,45.7,1.07,54.43.12,63.35-1.09,74.78,7,79.58,17,81.4l-1.39-2.46-2.24,6.11c-.89,2.42,3,3.46,3.86,1.06L19.47,80a2,2,0,0,0-1.39-2.46C11.57,76.36,4.38,74.39,4,66.48,3.64,59.59,7.7,49.9,16.09,51.8c2.51.56,3.58-3.29,1.06-3.86Z"/></g><g class="cls-11"><path class="cls-12" d="M20.23,65.41C14.62,62.46,9.41,70.14,12.66,75c1.72,2.57,5.89,3.22,8.7,3.7a13.76,13.76,0,0,0,9.88-1.55c2.19-1.35.19-4.81-2-3.46-2.69,1.66-5.52,1.51-8.49.81a18,18,0,0,1-3.34-1,1.63,1.63,0,0,1-1.63-1.7c-.11-1.55.7-2.54,2.45-3,2.27,1.2,4.3-2.26,2-3.45Z"/></g><path class="cls-13" d="M129,45.91c-1.14-2.25-4.34-2.9-6.75-2.43a5.55,5.55,0,0,0,2.21-3.63,4.09,4.09,0,0,0-1.84-4.09c-1.66-1-3.75-.69-5.51-.12s-4,1.71-4.23,3.74c0,.19.27.22.29,0,.26-1.93,2.43-2.95,4.07-3.5a6.29,6.29,0,0,1,5.2.09,3.78,3.78,0,0,1,1.72,3.82,5.29,5.29,0,0,1-2.88,3.93.15.15,0,0,0,.12.27c2.24-.82,5.46-.4,7,1.54a3,3,0,0,1,0,3.71c-.54.9-1.78,2.68-3,2.42-.18,0-.21.26,0,.3,1.29.26,2.5-1.35,3.11-2.25A3.52,3.52,0,0,0,129,45.91Z"/><path class="cls-13" d="M65.52,16.76c-1.62-.69-3.72.16-5,1.13a6.06,6.06,0,0,0-1.85,2.32,5,5,0,0,0-.2,2.57A6,6,0,0,0,50.9,21.1c-2.83,1.5-3.58,6.38-.1,7.55.19.06.29-.22.11-.28a3.25,3.25,0,0,1-2.11-3.78,4.51,4.51,0,0,1,2.64-3.42c2.47-1.12,5.91-.18,7.09,2.34a.15.15,0,0,0,.29-.09,8,8,0,0,1,0-2.88,5.43,5.43,0,0,1,1.68-2.29A5.31,5.31,0,0,1,65.42,17c1.58.6,5.18,3.87,3.21,5.6a.15.15,0,0,0,.19.23C71.05,20.91,67.28,17.5,65.52,16.76Z"/><path class="cls-13" d="M61.53,59a10.54,10.54,0,0,0-.28-1.57c-.11-.47-.19-.5.23-.7.17-.08.05-.35-.12-.27a.92.92,0,0,1-.42.08c-.06,0-.09.05-.12.09-.14.28.06.57.14.85a10.34,10.34,0,0,1,.25,1.35,10.55,10.55,0,0,1-.08,3,12.93,12.93,0,0,1-2.31,5.32,16.12,16.12,0,0,1-7.9,6c-5.19,1.7-11.23.91-16.25-1-4.85-1.84-9.77-5.38-10.86-10.76-.5-2.45.43-5.08,1.64-7.19s3.34-4.24,5.88-3.07c3.24,1.49,2.92,6.42,0,8.12-.16.09,0,.36.12.26a5.34,5.34,0,0,0,1.85-7,3.94,3.94,0,0,0-5.49-1.44c-2,1.3-3.27,3.73-4,6a9.14,9.14,0,0,0,.29,6.51c1.57,3.83,5.06,6.47,8.79,8.17.54,1.85-1,3.49-2.27,4.59a7,7,0,0,1-3.24,1.53,19.75,19.75,0,0,1-7.39,0c-2.19-.39-4.84-1.25-6-3.36a5.09,5.09,0,0,1,.16-4.31,7.61,7.61,0,0,1,4.38-3.95c.18-.06.06-.33-.12-.27-3,1.06-5.47,4.08-5.09,7.36.24,2.1,2.14,3.39,3.95,4.1a18.4,18.4,0,0,0,7.36,1c.35,0,.7,0,1.05-.07a.15.15,0,0,0,.07,0c1.23.23,1.85,1.5,2.22,2.56a14.64,14.64,0,0,1,.65,4.88,15,15,0,0,1-.68,4.61c-.26.81-.83,2.2-1.9,2-.19,0-.22.27,0,.29,1.06.15,1.68-.9,2-1.73a13.82,13.82,0,0,0,.88-5,14.81,14.81,0,0,0-.71-5.29,4,4,0,0,0-1.84-2.43,13.36,13.36,0,0,0,1.63-.31A7.22,7.22,0,0,0,31,76.47c1.3-1.08,2.65-2.74,2.27-4.53.84.37,1.69.69,2.53,1,4.87,1.61,10.54,2.11,15.47.43a16.45,16.45,0,0,0,8-6.37,13.29,13.29,0,0,0,2.12-5.09A11.11,11.11,0,0,0,61.53,59Z"/><path class="cls-13" d="M32.61,95.78A9.9,9.9,0,0,0,31,92.94c-.67-.85-2.14-2.3-3-.83-.09.16.15.34.24.17,1.16-2,3.7,2.61,4,3.53a3.26,3.26,0,0,1-1.25,3.43,6.1,6.1,0,0,1-4,.78,14.45,14.45,0,0,1-5.66-1.8,6.84,6.84,0,0,1-2.53-1.92c-.71-1,.06-1.86.91-2.4.13-.09,0-.24-.08-.27-3.42-.8-6.57-2.51-7.55-6.11a7.83,7.83,0,0,1,.12-5.06,5.31,5.31,0,0,1,1.53-2.12,4.25,4.25,0,0,1,2.55-1.11c.19,0,.22-.28,0-.29l-.31,0A.12.12,0,0,0,16,79a5,5,0,0,0-1.75.73,5.6,5.6,0,0,0-1.87,2,7.25,7.25,0,0,0-.62,5.27,8.3,8.3,0,0,0,2.7,4.68,12,12,0,0,0,4.92,2.23c-3.73,2.71,3.82,5.66,5.89,6.22s5.17.58,6.68-1.23A3.52,3.52,0,0,0,32.61,95.78Z"/><path class="cls-13" d="M29,26.93c-3.16-3.71-8.64,1.71-10.71,4.15C14.75,35.22,14,42.3,16.77,47,9.68,45.35,2.37,50.51.74,57.5a17.5,17.5,0,0,0,.91,10.11A27.11,27.11,0,0,0,4.14,72.5a17.62,17.62,0,0,0,3.62,4.31,9.14,9.14,0,0,0,8.14,1.88c.18,0,.14-.34-.05-.29-4.34,1.18-8.11-1.35-10.56-4.74A23.91,23.91,0,0,1,.79,63.1,14.19,14.19,0,0,1,3.41,52.55,13.45,13.45,0,0,1,14.11,47,11.84,11.84,0,0,1,17,47.4a.15.15,0,0,0,.17-.23c-2.9-4.53-2.21-11.5,1.09-15.65a19.7,19.7,0,0,1,4.62-4.21c1.75-1.14,4.23-2.08,5.84-.19C28.86,27.26,29.09,27.07,29,26.93Z"/><path class="cls-13" d="M143.88,79.22c4.11-1.79,7.07-6.71,5.87-11.1-.68-2.51-3.12-4.47-5.24-5.76a16.16,16.16,0,0,0-7.32-2.47,18.89,18.89,0,0,0,10.46-14.56,11.33,11.33,0,0,0-2.39-8.21,18.89,18.89,0,0,0-7.19-5.31c-3.8-1.69-8.55-2.49-12.43-.62a38.12,38.12,0,0,0-4.3-10.8,38.71,38.71,0,0,0-7.4-8.69c-5.46-4.73-12.3-7.4-19.27-9A51.46,51.46,0,0,0,84.5,1.21a26,26,0,0,0-5,.36,34.46,34.46,0,0,0-4.78,1.3c-4,1.28-9.48,3.74-9.25,8.71a20.42,20.42,0,0,0-9.24-5.19,27.77,27.77,0,0,0-10-1.16A19.1,19.1,0,0,0,37.4,8a17.23,17.23,0,0,0-6.25,7.32,29.15,29.15,0,0,0-2,5.6,14,14,0,0,0-.4,5.64c0,.19.32.13.29-.06-.61-3.64.79-7.63,2.3-10.9a16.78,16.78,0,0,1,6.87-7.74c6.18-3.55,14-2.79,20.36-.38a17.14,17.14,0,0,1,7,4.59.15.15,0,0,0,.26-.12c-.38-3.57,2.38-5.9,5.29-7.34A28.51,28.51,0,0,1,75.47,3a30.27,30.27,0,0,1,6.45-1.38A42.72,42.72,0,0,1,94.64,3,53.13,53.13,0,0,1,105.3,6.53a36,36,0,0,1,12.37,9.37,34.79,34.79,0,0,1,4.84,7.22,43.65,43.65,0,0,1,2.89,8.3.16.16,0,0,0,.21.12,13.08,13.08,0,0,1,9.08-.58,20.58,20.58,0,0,1,8.52,4.44,11.64,11.64,0,0,1,4.19,8.2,16.17,16.17,0,0,1-3.19,9.81,18.22,18.22,0,0,1-7.73,6.47c-.13.06-.1.29.05.29a15.6,15.6,0,0,1,7.28,2.12,12.2,12.2,0,0,1,5.48,5.45c1.09,2.51.12,5.53-1.34,7.67a9.8,9.8,0,0,1-4.79,3.77,5.36,5.36,0,0,0-1.55.2.15.15,0,0,0-.1.19l-.16,0a.15.15,0,0,0-.11.21l0,.1a.14.14,0,0,0,.16.08.92.92,0,0,0,.32-.14,9,9,0,0,0,1.45-.36c4.14.07,9,4.34,6.7,8.49-1.94,3.44-7.78,4.49-10.64,1.67-.13-.13-.35,0-.23.19.64.77,1.39,1.43,2,2.21a3.64,3.64,0,0,1,.52,3.36c-.53,2-2,4-4.25,4a2.8,2.8,0,0,1-2.67-2.62,3.7,3.7,0,0,1,2.31-3.78.15.15,0,0,0,.06-.23c-1.52-2.07-3.35-3.83-3.41-6.56a4.39,4.39,0,0,1,1.24-3.34,15.54,15.54,0,0,1,2.88-2c.1-.05.06-.21,0-.25-3.06-1.13-6.28-2.41-8.72-4.65a6.08,6.08,0,0,1-2.1-3.86,6.2,6.2,0,0,1,1.21-3.92,18.55,18.55,0,0,0,2.15-.38c1.92-.46,4.75-1.52,4.86-3.86,0-.19-.28-.22-.29,0-.12,2.42-3.34,3.35-5.27,3.74a12.13,12.13,0,0,1-1.23.2c.2-.27.41-.55.62-.81s-.12-.32-.24-.17c-.27.33-.53.68-.77,1a32.35,32.35,0,0,1-5.65.06c-2.78-.18-6.15-.71-8.14-2.83a10.3,10.3,0,0,1-2.27-4.12,2.39,2.39,0,0,0-.44-2.64,9.74,9.74,0,0,1,0-1.21c0-.18-.28-.21-.3,0,0,.36,0,.73,0,1.09a.15.15,0,0,0,0,.26l0,0a11,11,0,0,0,.42,2.45,10.4,10.4,0,0,1-.79,1.67,24.75,24.75,0,0,1-2.56,3.46,22.77,22.77,0,0,1-9.67,6.49,23.45,23.45,0,0,1-11.16.8,35.07,35.07,0,0,1-10.85-3.35c-6.64-3.28-11.83-9.24-12.85-16.73-1-6.93,2.7-14.57,9.54-17a8.64,8.64,0,0,1,9.16,1.87,8.53,8.53,0,0,1,2.37,5.17c.16,2.12-1.31,3.59-3,4.57-.16.09,0,.36.12.27a6.08,6.08,0,0,0,3-3.1A6.21,6.21,0,0,0,84.4,41a8.44,8.44,0,0,0-6.57-5.31c-6.38-1-12,4.57-13.82,10.17-2.18,6.53.13,13.82,4.6,18.81,4.76,5.32,12,8.2,18.92,9.16a24.72,24.72,0,0,0,8.83-.2,23,23,0,0,0,8.37-3.88,24.07,24.07,0,0,0,5.67-5.94,11.92,11.92,0,0,0,1.27-2.24,11.1,11.1,0,0,0,2.2,3.86c2,2.22,5.53,2.73,8.34,2.94a30.45,30.45,0,0,0,5.48,0,6.83,6.83,0,0,0-1.15,3.61,5.84,5.84,0,0,0,1.67,3.8c2.31,2.58,5.88,4,9.07,5.15a12.86,12.86,0,0,0-2.79,2,4.66,4.66,0,0,0-1.2,3.14c-.09,2.87,1.78,4.75,3.37,6.88a4,4,0,0,0-2.34,3.89,3.14,3.14,0,0,0,2.68,3c2.31.3,3.9-1.69,4.63-3.61a4.52,4.52,0,0,0,.17-3.35,6.36,6.36,0,0,0-1.45-2c3.23,1.72,8.16.48,9.88-2.8C152.38,83.88,148,79.69,143.88,79.22ZM111.67,60.48a11.9,11.9,0,0,1-.25-1.55A2,2,0,0,1,111.67,60.48Z"/><path class="cls-13" d="M60.87,12.37C57.58,7.15,51,5.77,45.42,7.72a13.11,13.11,0,0,0-7,5.52c-2.05,3.47-2.05,7.69-2.44,11.58a.21.21,0,0,0,0,.11A.26.26,0,0,0,36,25a.15.15,0,0,0,.12.2,7.09,7.09,0,0,0,1.19.36.15.15,0,0,0,.16-.13c.12-1.31-.17-3.7,1.52-4.08a.16.16,0,0,0,.12-.14c0-2.07,1.62-3.74,3.1-5a22.86,22.86,0,0,1,5.63-3.44,22.46,22.46,0,0,1,6.06-1.46c2.23-.27,5-.35,6.79,1.24C60.8,12.7,61,12.5,60.87,12.37Zm-8.32-1.13a22.17,22.17,0,0,0-4,.95A21.42,21.42,0,0,0,45,13.93c-2.27,1.33-4.76,3.12-5.84,5.61a4.19,4.19,0,0,0-.33,1.52c0,.09-.46.21-.55.28a2,2,0,0,0-.52.57c-.6.95-.49,2.26-.57,3.36a7.22,7.22,0,0,1-.82-.29,1.41,1.41,0,0,0,.21-.31.16.16,0,0,0-.23-.18c.34-3.62.44-7.36,2.12-10.67a12.69,12.69,0,0,1,6.94-5.77c5.21-2,11.4-.74,14.76,3.78C58,10.5,54.93,10.84,52.55,11.24Z"/><path class="cls-13" d="M28.77,28.59c-3.53-2.38-8.22.78-9.51,4.28a6,6,0,0,0,.41,4.21c.19.53,1,2.55,1.76,1.55a4.38,4.38,0,0,0,.22.64c.07.18.34.06.27-.12-.91-2.2-.56-5.83,2.6-5.36a.14.14,0,0,0,.16-.17,3.86,3.86,0,0,1,4-4.76C28.81,28.87,28.9,28.67,28.77,28.59Zm-4.42,4.88c-2.79-.28-3.51,2.53-3,4.82a.12.12,0,0,0-.08.06c-.59,1-1.52-2-1.63-2.33a4.76,4.76,0,0,1,.1-3.54C21,29.53,25,27,28.13,28.56A4.17,4.17,0,0,0,24.35,33.47Z"/><path class="cls-8" d="M141.05,94.43c.06.3-.73,2.26-.8,2.73a45.13,45.13,0,0,1-4.18,13,38.73,38.73,0,0,1-4.4,6.77,60.15,60.15,0,0,1-6.09,6.55,52.32,52.32,0,0,1-14.1,9.27c-.66.3-1.33.59-2,.87A69.71,69.71,0,0,1,86,138.54c-7.67.34-16.25.26-23.54-2.55l-.09,0a60.67,60.67,0,0,1-17.49-8.3,44.18,44.18,0,0,1-12.22-12.93c-1.48-2.39-2.77-4.93-4.05-7.46q-1-2-2.07-4c-.36-.67-1.34-3.25-2-3.45-1.32-.39.21,2.76.47,3.34.51,1.11,1.06,2.19,1.62,3.28,1.74,3.33,3.39,6.72,5.36,9.9A44.58,44.58,0,0,0,44.58,129a61.93,61.93,0,0,0,7.1,3.88c.83.43,1.66.83,2.5,1.21h0a7.14,7.14,0,0,0-1-.32l0,.1a8.46,8.46,0,0,1,1.69.52,0,0,0,0,1,0,0c1.43.62,2.88,1.2,4.38,1.74,2.66,1,5.43,1.23,8.16,2,.69.18,1.4.33,2.11.47a66.25,66.25,0,0,0,9.89.93c2.34.08,4.68.06,7-.08,1.85-.1,3.67-.78,5.52-.76h.24a24.59,24.59,0,0,0,4.65-.55A68.53,68.53,0,0,0,107,135.23a61.48,61.48,0,0,0,18.39-10.66,60.46,60.46,0,0,0,6.94-6.92,36.94,36.94,0,0,0,6.17-10.79C139.92,103.08,141.92,98.61,141.05,94.43Z"/><path class="cls-8" d="M37.29,93.44l-.11,0a2.09,2.09,0,0,0-1.24.43,4.53,4.53,0,0,0-1.86,3.34,11.2,11.2,0,0,0-.67,1.46,2.88,2.88,0,0,0,.24,3,5.6,5.6,0,0,0,.26,1.69c.64,1.9,3.06.24,3.63-.87a6,6,0,0,0,.51-1.54,3.7,3.7,0,0,0,.69-.84C39.76,98.35,40.22,93.08,37.29,93.44Zm.08,2.4a1.32,1.32,0,0,0-1.32-.28,4.21,4.21,0,0,1,.69-1.24,1.67,1.67,0,0,1,.29.41A5.76,5.76,0,0,1,37.45,96Z"/><path class="cls-8" d="M127.9,98a1.52,1.52,0,0,0-1.13-.5l0,0c-.43-1.53-1.95-1.34-3.15-.62s-1.58,2.37-1.7,3.89a4.45,4.45,0,0,0,0,2.37h0c.08,1.34.44,2.82,1.78,2.73l.28,0a2.17,2.17,0,0,0,1.11,0C127.68,105.23,130,100.37,127.9,98Zm-3.35,1a2.55,2.55,0,0,0-.14,1.3,3.4,3.4,0,0,0-.71,1.45,7.83,7.83,0,0,1,0-.85,7.08,7.08,0,0,1,.48-1.94C124.33,98.81,124.45,98.86,124.55,99Zm.56-1.71a4.07,4.07,0,0,0-.91.33,2.26,2.26,0,0,0-.37.26,2.69,2.69,0,0,1,.38-.57C124.65,96.82,124.93,97,125.11,97.28Z"/><path class="cls-8" d="M50.54,111.18a.68.68,0,0,0,0,1.35A.68.68,0,0,0,50.54,111.18Z"/><path class="cls-8" d="M59.79,105.94a.67.67,0,0,0,0,1.34A.67.67,0,0,0,59.79,105.94Z"/><path class="cls-8" d="M57.32,110.57a.67.67,0,0,0,0,1.34A.67.67,0,0,0,57.32,110.57Z"/><path class="cls-8" d="M61,109.33a.67.67,0,0,0,0,1.34A.67.67,0,0,0,61,109.33Z"/><path class="cls-8" d="M54.55,114.88a.68.68,0,0,0,0,1.35A.68.68,0,0,0,54.55,114.88Z"/><path class="cls-8" d="M103.57,104.71a.67.67,0,0,0,0,1.34A.67.67,0,0,0,103.57,104.71Z"/><path class="cls-8" d="M116.21,110.57a.67.67,0,0,0,0,1.34A.67.67,0,0,0,116.21,110.57Z"/><path class="cls-8" d="M108.81,108.1a.67.67,0,0,0,0,1.34A.67.67,0,0,0,108.81,108.1Z"/><path class="cls-8" d="M103,109.64h-.31a.67.67,0,0,0,0,1.34H103A.67.67,0,0,0,103,109.64Z"/><path class="cls-8" d="M110.35,113.65a.67.67,0,0,0,0,1.34A.67.67,0,0,0,110.35,113.65Z"/><path class="cls-14" d="M147.3,92.09a1.62,1.62,0,0,0-1.5-.51,2.13,2.13,0,0,0-2.51.08c-6.8-11.91-26.91-15.68-41.44-13.3a1.69,1.69,0,0,0-.83-.09,18.83,18.83,0,0,0-7.58,2.46c-4,1.75-6.76,4.2-7.47,7.3-3.4-1.18-7.35-.73-10.82.31a3.65,3.65,0,0,1-.24-.75,1.59,1.59,0,0,0-.87-1c-6.86-14.55-39.39-11.72-52.92.8a2.07,2.07,0,0,0-1,0c-2,.38-3.95.9-5.94,1.28a2.07,2.07,0,0,0-.66.26,1.5,1.5,0,0,0-1,1.13c-.89,4.13.07,7.65.28,11.75a1.6,1.6,0,0,0,.18,1.57,2,2,0,0,0,2.65.87,37.88,37.88,0,0,0,2.56,7.24c3.29,6.75,11.43,9.6,18.74,10.81,18.81,3.11,32.42-7,37.35-23.08a21.61,21.61,0,0,0,1-7.19c3.24-1.09,7.84-2.13,10.79,0a2.25,2.25,0,0,1,.05.22,1.66,1.66,0,0,0,1.2,1.13c.81,13.76,10.91,27.37,26.5,29,14.86,1.56,29.3-4.07,31.49-17.8a1.75,1.75,0,0,0,1.44-1,1.64,1.64,0,0,0,1.07-1.51v-1.37a1.53,1.53,0,0,0,.94-1.44C148.79,96.57,149.21,94.22,147.3,92.09Zm-77.38,8.5C65.1,116.28,49.18,121.7,33.11,117.9c-9.87-2.32-12.64-9.39-14.44-17.05,0-.32.06-.64.07-1s0-.84,0-1.26c0-.17,0-.35,0-.51a1.51,1.51,0,0,0,.32-.63c2.41-11.35,15.67-14,26.22-16a48.58,48.58,0,0,1,16-.6C72.27,82.45,72.36,92.61,69.92,100.59Zm42,17.9C98.77,116.21,91,103.11,91,91.53a1.52,1.52,0,0,0-.2-.75c.15-3.87,3-6.78,6.68-8.19,6.51-1.8,15.08-1.81,18.06-1.61,13.7.92,26.21,8.06,26.38,21.74C142.11,117.19,124,120.56,112,118.49Z"/></g></g></svg>